<?xml version="1.0" standalone="no"?>
<!DOCTYPE svg PUBLIC "-//W3C//DTD SVG 20010904//EN"
 "http://www.w3.org/TR/2001/REC-SVG-20010904/DTD/svg10.dtd">
<svg version="1.0" xmlns="http://www.w3.org/2000/svg"
 width="1000.000000pt" height="1000.000000pt" viewBox="0 0 1000.000000 1000.000000"
 preserveAspectRatio="xMidYMid meet">
<metadata>
Created by potrace 1.11, written by Peter Selinger 2001-2013
</metadata>
<g transform="translate(0.000000,1000.000000) scale(0.100000,-0.100000)"
fill="#000000" stroke="none">
<path d="M4580 9974 c-19 -2 -84 -9 -145 -14 -236 -23 -556 -89 -850 -175
-703 -208 -1357 -572 -1904 -1061 -140 -125 -281 -268 -281 -285 0 -6 -3 -8
-8 -6 -8 4 -43 -29 -36 -35 2 -2 -8 -15 -22 -29 -73 -69 -114 -115 -114 -128
0 -8 -3 -12 -6 -8 -7 7 -64 -57 -64 -72 0 -7 5 -9 12 -5 7 4 8 3 4 -5 -4 -6
-12 -9 -17 -5 -14 8 -124 -114 -124 -137 0 -4 -17 -27 -38 -51 -21 -25 -61
-78 -88 -119 -65 -98 -61 -92 -129 -192 -101 -149 -259 -456 -372 -722 -32
-77 -66 -156 -74 -175 -28 -64 -32 -74 -68 -198 -20 -67 -34 -126 -31 -131 3
-5 1 -11 -5 -13 -5 -1 -11 -12 -13 -23 -2 -11 -7 -27 -10 -35 -22 -55 -87
-325 -87 -361 0 -5 11 -3 25 3 25 11 34 28 15 28 -5 0 -10 -5 -10 -11 0 -5 -4
-8 -10 -4 -18 11 1 32 26 29 23 -2 25 0 20 24 -5 20 -4 23 4 12 8 -12 10 -10
11 10 1 14 1 29 0 33 -1 5 3 6 9 2 5 -3 10 1 10 9 0 8 4 17 9 20 5 4 7 -2 4
-12 -3 -11 1 -19 9 -19 7 0 14 12 15 26 5 47 9 61 22 74 10 10 10 6 2 -16 -14
-37 -14 -40 4 -33 10 3 15 -1 16 -12 0 -11 2 -12 6 -4 3 7 -1 20 -8 30 -7 9
-9 14 -5 10 5 -4 15 -3 23 4 10 8 12 8 8 -4 -3 -8 -1 -27 4 -42 9 -23 14 -25
31 -16 25 14 25 6 0 -29 -12 -15 -22 -37 -23 -48 0 -12 -7 -20 -17 -18 -10 1
-14 10 -12 26 3 19 1 21 -10 11 -10 -8 -18 -8 -25 -1 -11 11 -63 20 -61 10 1
-3 -6 -24 -15 -45 -28 -64 -43 -115 -73 -243 -15 -67 -32 -119 -36 -117 -4 3
-8 0 -8 -7 0 -7 -3 -9 -6 -6 -4 4 -1 13 6 22 7 8 9 15 5 15 -4 0 -2 6 4 14 7
8 9 25 5 42 -5 19 -4 25 5 20 8 -6 10 0 5 18 -4 17 -2 26 5 26 8 0 8 4 -1 14
-7 8 -14 13 -16 12 -7 -7 -31 -177 -37 -261 -2 -22 -8 -93 -15 -158 -8 -81
-11 -246 -7 -535 4 -386 6 -430 30 -584 62 -398 141 -708 264 -1042 336 -911
931 -1704 1713 -2285 195 -145 229 -168 405 -272 558 -330 1201 -562 1815
-654 315 -48 341 -49 960 -50 327 0 510 2 405 5 -169 4 -181 6 -111 13 127 12
349 46 506 77 222 45 582 147 674 191 22 11 46 19 53 19 8 0 12 4 9 9 -3 4 6
6 19 3 14 -2 25 0 25 6 0 5 21 15 48 21 26 7 61 20 77 29 17 10 56 26 88 37
31 10 57 23 57 27 0 4 6 8 13 8 49 1 499 249 706 391 175 119 209 144 271 194
34 28 75 60 92 72 99 73 298 254 298 270 0 8 4 12 8 9 12 -7 261 249 372 384
116 140 230 285 230 295 0 3 7 14 16 22 23 23 160 230 231 348 123 206 273
510 347 705 147 383 267 824 296 1080 5 41 16 127 24 190 9 63 20 154 26 201
13 109 13 734 0 791 -5 24 -17 111 -26 193 -91 845 -466 1764 -998 2448 -189
244 -564 646 -588 631 -5 -3 -7 -2 -6 3 4 11 -93 98 -230 208 -297 239 -710
494 -1038 644 -193 87 -490 203 -591 230 -24 7 -43 16 -43 21 0 6 -11 10 -24
10 -13 0 -84 15 -157 34 -175 45 -403 91 -614 123 -161 25 -193 26 -615 28
-245 2 -461 1 -480 -1z m860 -44 c-10 -6 -11 -10 -2 -10 6 0 12 -4 12 -10 0
-5 -7 -7 -15 -4 -21 8 -19 34 3 34 14 0 15 -2 2 -10z m147 -56 c-3 -3 -12 -4
-19 -1 -8 3 -5 6 6 6 11 1 17 -2 13 -5z m103 -66 c8 -3 1 -7 -17 -10 -18 -2
-33 -1 -33 4 0 4 -7 8 -15 8 -8 0 -15 4 -15 10 0 5 6 7 14 4 8 -3 17 0 22 7 5
9 10 8 18 -3 6 -8 18 -17 26 -20z m30 -28 l25 -8 -27 -1 c-16 -1 -28 -6 -28
-12 0 -6 -7 -8 -16 -5 -8 3 -12 2 -9 -4 3 -6 1 -10 -4 -10 -6 0 -11 2 -11 4 0
2 -3 12 -7 21 -5 14 -2 16 17 10 15 -5 20 -4 16 4 -8 12 7 13 44 1z m405 -10
c3 -6 -1 -7 -9 -4 -18 7 -21 14 -7 14 6 0 13 -4 16 -10z m-375 -20 c0 -5 -2
-10 -4 -10 -3 0 -8 5 -11 10 -3 6 -1 10 4 10 6 0 11 -4 11 -10z m0 -27 c0 -3
-14 -3 -31 -1 l-31 5 23 -18 c13 -10 31 -19 39 -19 12 0 12 2 2 9 -11 7 -10 9
3 14 9 4 13 3 10 -3 -3 -5 3 -15 14 -22 18 -11 18 -13 3 -25 -23 -17 -42 -16
-42 2 0 8 -5 15 -11 15 -5 0 -7 -5 -3 -12 4 -7 3 -8 -4 -4 -6 4 -9 13 -5 21 5
13 -2 17 -24 14 -5 -1 -7 -6 -5 -12 1 -7 -5 -3 -13 7 -19 26 -19 34 3 38 21 4
72 -2 72 -9z m414 8 c4 -5 -3 -7 -14 -4 -23 6 -26 13 -6 13 8 0 17 -4 20 -9z
m-17 -17 c-3 -3 -12 -4 -19 -1 -8 3 -5 6 6 6 11 1 17 -2 13 -5z m-116 -27
c-10 -9 -11 -8 -5 6 3 10 9 15 12 12 3 -3 0 -11 -7 -18z m45 -14 c-10 -10 -19
5 -10 18 6 11 8 11 12 0 2 -7 1 -15 -2 -18z m-51 -20 c-2 -10 -4 -20 -4 -23
-1 -3 -5 2 -11 10 -6 9 -5 17 3 22 16 10 16 10 12 -9z m45 -5 c0 15 43 9 48
-7 3 -9 7 -9 18 0 11 9 15 8 20 -5 3 -9 13 -16 21 -16 8 0 11 -5 7 -12 -5 -7
-2 -9 9 -5 8 3 18 0 21 -8 3 -9 0 -12 -10 -8 -18 7 -18 -4 0 -23 8 -7 16 -10
18 -5 2 4 12 5 23 0 18 -7 18 -8 -5 -9 -14 -2 -29 -1 -35 0 -5 1 -15 3 -22 3
-6 0 -10 9 -8 19 2 11 -2 18 -11 18 -8 0 -12 -4 -9 -10 3 -5 2 -10 -4 -10 -6
0 -15 9 -21 20 -13 25 -42 27 -34 3 5 -17 5 -17 -6 0 -6 9 -16 17 -22 17 -7 0
-6 -5 2 -15 7 -8 10 -16 6 -16 -3 -1 -9 -2 -13 -3 -5 -1 -14 -5 -21 -10 -7 -4
-16 -6 -19 -3 -2 3 5 10 16 17 12 6 19 15 16 21 -7 11 35 29 49 21 5 -3 6 0 3
5 -4 7 -20 8 -42 3 -31 -7 -34 -6 -25 10 5 9 8 19 7 21 -1 2 4 -2 11 -10 8
-10 12 -11 12 -3z m-340 -8 c0 -5 -2 -10 -4 -10 -3 0 -8 5 -11 10 -3 6 -1 10
4 10 6 0 11 -4 11 -10z m775 0 c-3 -5 -12 -7 -20 -3 -21 7 -19 13 6 13 11 0
18 -4 14 -10z m45 0 c0 -5 -2 -10 -4 -10 -3 0 -8 5 -11 10 -3 6 -1 10 4 10 6
0 11 -4 11 -10z m-760 -11 c0 -4 -11 -6 -25 -6 -14 0 -25 3 -25 8 0 5 11 8 25
7 14 -1 25 -5 25 -9z m25 -10 c-6 -28 -8 -30 -25 -19 -10 7 -11 10 -2 10 6 0
12 7 12 15 0 8 4 15 9 15 6 0 8 -10 6 -21z m161 -6 c-8 -8 -76 -12 -80 -5 -2
4 16 8 40 8 25 1 43 -1 40 -3z m394 -13 c0 -5 -5 -10 -11 -10 -5 0 -7 5 -4 10
3 6 8 10 11 10 2 0 4 -4 4 -10z m-83 -26 c-9 -9 -28 6 -21 18 4 6 10 6 17 -1
6 -6 8 -13 4 -17z m47 6 c-6 -6 -15 -5 -24 1 -13 9 -12 10 3 5 9 -3 17 0 17 6
0 6 3 8 7 5 4 -4 2 -12 -3 -17z m76 10 c0 -5 -2 -10 -4 -10 -3 0 -8 5 -11 10
-3 6 -1 10 4 10 6 0 11 -4 11 -10z m-460 -43 c0 -6 -7 -2 -15 9 -12 15 -14 16
-15 3 0 -19 -21 -21 -38 -2 -10 10 -8 12 10 10 16 -1 22 3 20 13 -3 11 2 10
17 -4 12 -11 21 -24 21 -29z m30 33 c0 -5 -6 -10 -14 -10 -8 0 -18 5 -21 10
-3 6 3 10 14 10 12 0 21 -4 21 -10z m143 -9 c3 -13 1 -18 -9 -14 -7 2 -10 11
-7 19 7 19 10 18 16 -5z m-293 5 c0 -3 -4 -8 -10 -11 -5 -3 -10 -1 -10 4 0 6
5 11 10 11 6 0 10 -2 10 -4z m180 -6 c0 -5 -2 -10 -4 -10 -3 0 -8 5 -11 10 -3
6 -1 10 4 10 6 0 11 -4 11 -10z m-35 -19 c3 -5 1 -12 -5 -16 -5 -3 -10 1 -10
9 0 18 6 21 15 7z m176 -14 c-10 -9 -11 -8 -5 6 3 10 9 15 12 12 3 -3 0 -11
-7 -18z m209 13 c0 -5 -7 -10 -16 -10 -8 0 -12 5 -9 10 3 6 10 10 16 10 5 0 9
-4 9 -10z m527 -5 c0 -8 -4 -12 -9 -9 -5 3 -6 10 -3 15 9 13 12 11 12 -6z
m-787 -16 l25 -20 -25 6 c-14 4 -29 11 -34 16 -14 13 -28 11 -20 -3 4 -7 3 -8
-5 -4 -6 4 -9 12 -6 17 10 15 38 10 65 -12z m163 -9 c3 -11 1 -20 -5 -20 -5 0
-6 -5 -2 -12 4 -7 3 -8 -4 -4 -6 4 -9 13 -5 21 3 8 0 15 -7 15 -6 0 -8 5 -5
10 10 16 22 12 28 -10z m712 -20 c-3 -5 -12 -10 -18 -10 -7 0 -6 4 3 10 19 12
23 12 15 0z m305 -215 c-7 -8 -17 -15 -22 -15 -11 0 14 29 26 30 5 0 3 -7 -4
-15z m24 -27 c-5 -8 -1 -9 10 -5 9 4 15 3 12 -2 -7 -10 -56 -12 -56 -2 0 4 5
12 12 19 13 13 31 5 22 -10z m626 -454 c0 5 11 1 25 -8 14 -9 25 -14 25 -11 0
3 9 1 20 -5 14 -7 18 -18 15 -39 -3 -26 0 -29 31 -33 32 -4 33 -3 20 17 -12
19 -12 22 0 22 8 0 24 -15 35 -34 11 -18 24 -33 28 -33 4 0 8 -6 8 -13 0 -7
-9 -13 -19 -13 -10 0 -18 4 -18 8 0 4 -7 4 -17 1 -11 -4 -14 -3 -9 5 12 20 -4
35 -22 20 -12 -10 -14 -10 -8 0 5 8 1 12 -12 12 -21 0 -46 23 -36 33 3 3 -4 3
-15 0 -15 -4 -21 -1 -19 8 5 22 21 29 38 16 13 -10 13 -10 2 5 -8 9 -20 14
-28 11 -8 -3 -14 0 -14 7 0 6 -5 8 -11 4 -8 -5 -8 -9 1 -14 7 -4 8 -10 3 -13
-5 -3 -19 13 -31 36 -13 23 -16 33 -8 23 9 -11 16 -16 16 -12z m270 -140 c0
-8 -19 -13 -24 -6 -3 5 1 9 9 9 8 0 15 -2 15 -3z m-6770 -229 c-6 -8 -8 -20
-4 -26 4 -7 3 -9 -3 -6 -6 4 -13 0 -16 -7 -7 -19 -47 -41 -47 -26 0 5 7 10 16
10 10 0 14 5 10 16 -3 8 -2 13 3 10 5 -3 16 5 25 19 9 14 19 25 22 25 4 0 1
-7 -6 -15z m-145 -165 c8 7 12 5 12 -3 0 -7 -11 -13 -24 -13 -14 0 -23 6 -23
15 0 11 3 12 12 3 7 -7 16 -8 23 -2z m55 -4 c0 -2 -8 -10 -17 -17 -16 -13 -17
-12 -4 4 13 16 21 21 21 13z m-77 -42 c-6 -18 -19 -18 -26 -1 -3 7 3 13 14 14
12 1 16 -3 12 -13z m-148 -684 c3 -5 1 -10 -4 -10 -6 0 -11 5 -11 10 0 6 2 10
4 10 3 0 8 -4 11 -10z m-250 -110 c-3 -5 -12 -10 -18 -10 -7 0 -6 4 3 10 19
12 23 12 15 0z m1924 -56 c2 -2 -7 -4 -22 -4 -14 0 -33 -3 -43 -7 -16 -6 -17
-5 -4 9 13 14 56 15 69 2z m-1689 -19 c0 -2 -9 -3 -19 -2 -11 0 -18 5 -15 9 4
6 34 0 34 -7z m-308 -12 c-6 -2 -9 -10 -6 -15 4 -7 2 -8 -5 -4 -13 9 -5 26 12
25 9 0 8 -2 -1 -6z m305 -28 c0 -8 -4 -12 -9 -9 -5 3 -6 10 -3 15 9 13 12 11
12 -6z m-288 -14 c8 -5 9 -11 3 -15 -6 -3 -13 -2 -17 4 -4 6 -11 7 -17 4 -7
-4 -8 -2 -4 4 8 14 16 15 35 3z m-76 -16 c-3 -9 -8 -14 -10 -11 -3 3 -2 9 2
15 9 16 15 13 8 -4z m209 -25 c-22 -26 -24 -25 -10 5 6 13 15 22 19 19 5 -2 1
-14 -9 -24z m-68 -26 c3 -8 2 -12 -4 -9 -6 3 -10 10 -10 16 0 14 7 11 14 -7z
m70 -20 c3 -8 2 -12 -4 -9 -6 3 -10 10 -10 16 0 14 7 11 14 -7z m156 1 c-7 -8
-9 -15 -5 -15 5 0 6 -3 2 -6 -3 -4 -13 1 -22 9 -14 14 -13 16 7 20 13 2 25 5
27 6 2 0 -2 -6 -9 -14z m-5 -86 c-4 -53 -20 -83 -38 -72 -5 3 -7 1 -4 -4 4 -6
-2 -21 -13 -33 -11 -12 -17 -26 -15 -30 3 -5 -3 -6 -14 -3 -15 4 -18 0 -16
-20 2 -19 -1 -24 -11 -20 -8 3 -11 10 -7 16 3 5 1 7 -5 4 -5 -4 -8 -16 -5 -27
3 -11 1 -20 -4 -20 -6 0 -10 14 -11 31 0 17 -9 37 -19 45 -17 14 -17 15 4 9
26 -7 38 8 42 51 1 13 4 14 16 4 12 -10 12 -15 -2 -36 -9 -15 -11 -24 -4 -24
6 0 11 5 11 12 0 6 8 20 18 31 9 11 11 17 4 13 -15 -9 -27 17 -18 40 5 13 9
14 21 4 8 -7 12 -17 8 -23 -4 -6 -1 -7 6 -3 9 6 9 12 -3 25 -9 10 -16 22 -16
28 0 6 -6 14 -12 17 -7 3 -3 3 9 0 18 -4 22 -2 17 11 -9 22 15 16 39 -10 18
-20 18 -20 8 2 -8 16 -8 23 2 26 6 3 13 6 14 6 1 1 0 -22 -2 -50z m-215 37 c0
-3 -4 -8 -10 -11 -5 -3 -10 -1 -10 4 0 6 5 11 10 11 6 0 10 -2 10 -4z m-190
-16 c8 -5 11 -10 5 -10 -5 0 -17 5 -25 10 -8 5 -10 10 -5 10 6 0 17 -5 25 -10z
m295 -37 c-6 -37 -17 -43 -14 -8 2 17 -1 37 -6 45 -8 13 -7 13 8 1 11 -8 15
-23 12 -38z m-183 17 c-2 -7 3 -20 11 -29 9 -11 11 -25 6 -46 l-8 -30 3 32 c2
30 0 32 -22 26 -22 -5 -23 -4 -13 15 6 11 8 28 4 38 -4 12 -2 15 8 12 8 -3 13
-11 11 -18z m-101 -39 c-8 -13 -17 -18 -28 -14 -12 5 -15 2 -11 -8 4 -10 -1
-15 -15 -17 -12 0 -17 2 -11 6 6 4 13 15 17 25 4 10 11 15 17 12 5 -3 10 -1
10 5 0 6 5 8 10 5 6 -3 10 -1 10 6 0 7 3 10 6 7 3 -4 1 -16 -5 -27z m259 5 c0
-3 -4 -8 -10 -11 -5 -3 -10 -1 -10 4 0 6 5 11 10 11 6 0 10 -2 10 -4z m-63
-38 c-3 -8 -6 -5 -6 6 -1 11 2 17 5 13 3 -3 4 -12 1 -19z m-121 -4 c-7 -19 3
-41 13 -26 4 6 12 4 21 -6 13 -14 12 -15 -3 -9 -9 3 -17 2 -17 -3 0 -6 6 -10
13 -10 8 0 14 -7 14 -15 0 -10 -4 -12 -12 -5 -7 5 -16 6 -20 2 -5 -4 -5 -2 -2
4 4 6 0 20 -8 30 -17 23 -19 54 -4 54 6 0 8 -7 5 -16z m182 -19 c0 -24 -8 -31
-21 -19 -4 5 13 44 19 44 1 0 2 -11 2 -25z m-331 -17 c-2 -12 -9 -24 -15 -26
-15 -5 -15 3 0 28 16 25 19 25 15 -2z m63 -4 c0 -8 -19 -13 -24 -6 -3 5 1 9 9
9 8 0 15 -2 15 -3z m4658 0 c18 -4 34 -15 41 -30 6 -13 17 -24 25 -24 8 0 16
-5 18 -11 2 -5 15 -12 28 -13 14 -2 55 -21 92 -44 41 -25 74 -39 86 -36 10 3
26 -2 36 -11 9 -9 16 -13 16 -8 0 5 15 10 33 10 40 2 56 6 85 22 13 7 26 10
29 7 4 -3 12 -1 18 4 9 7 16 6 25 -5 14 -17 46 -20 55 -5 11 18 33 11 64 -19
16 -16 32 -27 35 -24 3 3 8 -2 12 -11 3 -9 12 -16 19 -16 15 0 29 -46 19 -62
-4 -7 -3 -8 4 -4 7 4 12 14 12 22 0 18 14 18 30 0 6 -8 18 -12 26 -9 8 3 14 1
14 -4 0 -22 97 -20 114 2 13 18 14 18 25 -3 9 -17 9 -22 -1 -22 -9 0 -9 -3 0
-12 10 -10 15 -10 21 1 10 16 31 6 31 -14 0 -14 16 -15 38 -2 18 12 32 -1 32
-28 0 -23 1 -23 30 -9 36 19 45 14 60 -31 7 -22 18 -35 28 -35 16 1 15 2 0 14
-25 18 -22 29 4 20 20 -6 21 -5 10 8 -10 13 -10 17 2 21 39 15 130 -20 162
-63 7 -8 26 -31 42 -50 27 -30 31 -42 30 -93 -1 -51 -3 -57 -19 -52 -13 4 -19
1 -19 -9 0 -9 4 -16 8 -16 13 0 32 -68 20 -72 -5 -2 0 -15 11 -30 12 -14 21
-33 21 -42 0 -9 4 -16 10 -16 5 0 13 -12 16 -26 4 -15 15 -35 25 -45 11 -11
19 -25 19 -33 0 -8 10 -36 22 -63 27 -62 31 -78 13 -63 -10 8 -15 8 -21 -1 -4
-7 -3 -9 4 -5 5 3 12 3 14 -2 1 -4 15 -17 30 -28 l26 -20 -42 -34 c-40 -33
-41 -35 -24 -52 19 -19 25 -78 8 -78 -5 0 -10 -7 -10 -16 0 -8 -4 -12 -10 -9
-12 8 0 -26 15 -41 17 -18 53 -26 60 -14 4 7 11 8 18 2 7 -5 27 -13 46 -17 32
-7 33 -6 27 18 -5 23 -3 25 32 30 30 4 40 0 55 -19 10 -13 23 -22 27 -19 5 3
14 -4 20 -15 6 -11 20 -20 30 -20 20 0 20 0 0 -20 -21 -21 -19 -40 4 -40 8 0
16 -9 19 -20 4 -15 10 -18 24 -13 15 5 14 2 -5 -19 -24 -27 -27 -73 -5 -73 7
0 18 -6 25 -12 6 -7 17 -13 23 -13 22 0 47 -42 42 -69 -3 -14 -1 -41 6 -59 10
-29 9 -35 -6 -43 -16 -9 -16 -12 -2 -32 20 -28 19 -37 -4 -37 -11 0 -29 -13
-40 -29 l-21 -29 23 -24 c12 -13 21 -31 19 -40 -2 -13 10 -19 52 -28 73 -15
156 -81 156 -123 0 -27 -2 -28 -31 -22 -30 7 -31 6 -18 -12 8 -11 28 -32 45
-46 25 -21 30 -32 26 -57 -2 -17 -9 -29 -16 -27 -6 3 -10 10 -8 16 1 8 -3 8
-17 -1 -11 -7 -17 -16 -14 -21 7 -12 -34 -45 -68 -52 -16 -4 -27 -10 -24 -14
2 -5 -13 -16 -34 -26 -23 -10 -42 -26 -45 -39 -3 -11 -28 -48 -56 -81 -27 -32
-50 -65 -50 -71 0 -7 -5 -15 -10 -17 -6 -3 -5 -4 2 -3 7 2 21 -1 31 -6 22 -11
24 -99 3 -118 -8 -6 -13 -17 -11 -23 2 -7 6 -26 9 -43 4 -27 1 -33 -17 -39
-22 -7 -22 -7 3 -14 37 -10 34 -46 -3 -46 -22 1 -27 -3 -24 -16 3 -10 -2 -20
-12 -24 -15 -6 -14 -8 2 -19 21 -16 22 -42 2 -50 -21 -8 -55 32 -55 65 0 36
-18 41 -55 16 -39 -27 -45 -36 -45 -69 0 -26 3 -28 39 -28 46 0 68 -20 52 -47
-6 -10 -11 -13 -11 -8 0 14 -67 17 -76 3 -4 -6 1 -17 11 -25 11 -7 15 -13 10
-13 -5 0 2 -11 15 -25 13 -14 19 -25 13 -25 -6 0 -10 -6 -10 -12 2 -30 -16
-88 -28 -88 -7 0 -18 -25 -25 -60 -9 -41 -17 -60 -28 -60 -8 0 -23 -9 -33 -21
-9 -11 -21 -21 -26 -22 -4 -1 -8 -15 -8 -32 0 -29 -1 -30 -50 -30 -44 0 -50
-3 -53 -22 -2 -13 -10 -23 -19 -23 -10 0 -13 -6 -9 -16 4 -10 0 -18 -12 -21
-10 -2 -23 -18 -29 -34 -9 -22 -18 -29 -37 -29 -14 0 -35 -9 -46 -20 -11 -11
-28 -20 -39 -20 -10 0 -24 -7 -31 -15 -7 -8 -20 -15 -30 -15 -9 0 -33 -11 -53
-24 -19 -13 -38 -22 -41 -18 -3 3 -6 -2 -6 -10 0 -12 -6 -14 -22 -10 -16 4
-19 2 -13 -8 6 -10 4 -12 -8 -7 -9 3 -19 2 -23 -4 -3 -6 -12 -8 -19 -5 -16 6
-27 -18 -19 -39 5 -11 0 -14 -20 -13 -16 2 -25 7 -22 14 3 8 -6 11 -26 10 -17
-1 -32 3 -35 11 -3 7 -9 10 -15 7 -5 -3 -7 -13 -3 -21 4 -13 3 -14 -9 -4 -11
9 -16 9 -22 0 -4 -8 -3 -9 4 -5 17 10 14 -5 -4 -29 -14 -19 -16 -19 -28 -3 -8
11 -17 14 -26 8 -9 -6 -18 -3 -27 8 -12 16 -14 16 -24 0 -5 -10 -17 -18 -26
-18 -9 0 -24 -7 -34 -16 -19 -17 -59 -11 -59 9 0 16 -62 15 -79 -1 -10 -10
-16 -10 -27 -1 -11 9 -13 9 -9 -2 7 -20 -80 -17 -103 3 -19 17 -41 13 -60 -10
-9 -12 -15 -13 -24 -4 -15 15 -39 16 -35 1 3 -17 -28 -19 -57 -4 -13 7 -43 11
-65 9 -23 -2 -41 0 -41 5 0 9 -110 57 -122 53 -5 -1 -8 2 -8 7 0 6 3 12 8 14
4 3 7 42 7 86 0 45 3 81 6 81 4 0 12 14 19 30 7 17 16 30 20 30 4 0 15 16 24
35 9 19 23 35 31 35 8 0 15 7 15 15 0 13 12 19 32 16 4 0 5 6 1 15 -5 13 -7
13 -14 2 -8 -12 -13 -4 -10 15 0 4 -4 8 -9 8 -6 1 -14 3 -20 4 -5 1 -13 3 -17
4 -5 1 0 6 10 12 13 8 23 7 35 -3 16 -12 16 -11 0 7 -19 23 -36 81 -21 72 5
-3 10 0 10 8 0 8 -4 12 -9 8 -5 -3 -16 4 -24 16 -8 12 -21 21 -28 21 -8 0 -16
6 -19 14 -3 7 -20 16 -37 18 -25 4 -31 2 -27 -12 3 -13 -3 -16 -37 -14 -22 1
-44 -3 -48 -9 -4 -7 -12 -6 -24 4 -11 8 -15 9 -10 2 5 -10 -4 -11 -41 -6 -50
6 -92 23 -115 46 -21 21 -222 29 -241 9 -9 -8 -39 -15 -73 -17 -56 -3 -59 -4
-69 -34 -9 -30 -24 -39 -39 -24 -3 4 -16 8 -28 10 -12 2 -27 8 -35 14 -7 6
-13 9 -13 6 0 -3 -14 -2 -30 3 -17 5 -28 5 -25 0 3 -5 3 -27 -1 -49 -6 -36 -9
-39 -26 -30 -24 13 -58 2 -58 -18 0 -11 -4 -13 -12 -6 -17 14 -132 23 -149 13
-8 -5 -19 -4 -26 2 -9 7 -17 7 -27 -1 -7 -6 -21 -9 -30 -5 -10 4 -16 1 -16 -7
0 -8 -11 0 -25 16 l-25 30 -20 -25 c-11 -14 -20 -20 -20 -14 0 6 -9 21 -20 34
-11 13 -20 31 -20 40 0 9 -12 23 -27 31 -16 7 -31 15 -35 17 -3 2 -9 -5 -12
-16 -9 -28 -36 -23 -36 7 -1 36 -41 64 -80 56 -17 -4 -28 -10 -25 -15 3 -4 -2
-11 -11 -14 -8 -3 -12 -2 -9 4 3 6 -3 10 -15 10 -12 0 -19 -4 -16 -8 2 -4 1
-14 -5 -22 -7 -13 -9 -13 -10 0 -1 8 -1 18 0 23 0 4 -3 7 -9 7 -5 0 -10 18
-10 40 0 26 -5 43 -14 46 -8 3 -14 18 -14 34 1 15 -8 43 -19 61 -11 19 -18 42
-16 52 3 9 0 17 -6 17 -7 0 -17 12 -24 28 -6 15 -17 33 -24 40 -7 7 -9 26 -6
45 4 25 0 37 -17 52 -21 19 -22 19 -35 1 -8 -10 -19 -15 -26 -10 -8 4 -10 3
-5 -4 4 -7 1 -12 -8 -12 -9 0 -18 -13 -22 -35 -6 -34 -17 -44 -29 -26 -3 5 0
15 7 23 7 7 13 32 14 56 0 24 5 46 11 50 6 4 13 16 17 28 3 11 18 27 32 35 28
14 52 49 34 49 -5 0 -10 8 -10 18 0 10 -9 26 -21 35 -20 18 -21 18 -35 0 -7
-10 -14 -14 -14 -9 0 5 -9 1 -20 -9 -14 -13 -20 -14 -20 -5 0 7 -3 10 -7 7 -3
-4 -12 -2 -19 4 -10 8 -12 5 -8 -15 6 -33 -28 -55 -54 -34 -9 7 -13 9 -10 3 6
-11 -10 -28 -30 -33 -7 -1 -12 3 -12 9 0 6 -7 8 -16 5 -12 -5 -15 -2 -10 10 5
14 4 15 -8 5 -12 -10 -18 -7 -33 14 -10 14 -25 34 -34 45 -9 11 -15 30 -14 42
1 13 3 30 4 38 0 9 17 32 37 53 33 34 35 40 29 79 -10 65 -15 79 -27 72 -7 -5
-8 -2 -2 7 4 8 7 25 5 37 -1 14 6 33 17 45 21 23 31 65 19 83 -4 7 5 14 24 18
27 5 31 10 27 30 -4 18 0 26 14 29 12 3 18 14 18 32 0 22 -4 26 -20 22 -13 -3
-20 0 -20 10 0 10 -6 12 -20 8 -15 -5 -18 -3 -14 9 3 9 10 16 14 16 14 0 20
31 10 48 -8 14 -10 14 -11 2 -1 -8 -1 -21 0 -27 1 -7 -5 -13 -14 -13 -8 0 -15
5 -15 11 0 7 -10 9 -24 5 -27 -7 -46 11 -22 20 8 3 12 12 9 20 -3 8 0 14 7 14
6 0 9 4 6 8 -3 5 4 16 15 25 10 9 19 23 19 31 0 8 7 16 15 20 14 5 16 38 3 52
-11 10 -68 -7 -68 -21 0 -7 -9 -23 -19 -36 -17 -21 -22 -22 -40 -11 -29 17
-51 15 -51 -4 0 -16 -27 -43 -42 -44 -5 0 -8 7 -8 16 0 8 -16 22 -35 30 -23 9
-35 21 -35 34 0 23 -10 26 -28 8 -9 -9 -14 -6 -21 13 -5 13 -7 27 -4 32 2 4
-3 7 -11 7 -35 0 -32 87 4 118 11 9 20 20 20 24 0 16 -46 54 -62 50 -12 -2
-18 3 -18 13 0 11 5 15 14 12 11 -4 13 -1 9 10 -5 12 -3 14 7 8 9 -5 11 -4 6
3 -4 7 -14 12 -22 12 -8 0 -13 4 -10 9 7 11 -21 8 -31 -4 -4 -4 -3 -5 4 -1 6
3 14 2 18 -4 3 -5 0 -10 -7 -10 -10 0 -10 -2 -1 -8 10 -6 10 -12 -1 -28 -14
-19 -15 -19 -48 0 -53 30 -61 45 -35 66 18 15 19 20 8 34 -17 21 -31 21 -31 0
0 -13 -3 -14 -15 -4 -8 7 -12 16 -9 21 3 5 -1 9 -8 9 -8 1 -7 5 5 14 13 10 15
16 6 21 -6 4 -15 2 -19 -5 -6 -9 -9 -10 -15 0 -4 7 -3 15 2 19 16 10 8 50 -13
66 -10 8 -14 15 -8 15 19 0 25 40 6 40 -8 0 -13 3 -9 6 3 3 2 17 -3 29 -6 16
-5 25 3 29 9 3 8 7 -2 14 -8 6 -11 17 -8 26 3 8 2 18 -3 21 -6 4 -10 1 -10 -6
0 -9 -3 -10 -10 -3 -6 6 -6 22 1 47 5 20 7 59 4 87 -5 45 -4 50 15 50 11 0 20
-5 20 -11 0 -5 -4 -7 -10 -4 -17 11 -11 -52 7 -66 12 -10 15 -10 9 -1 -10 17
22 48 36 34 8 -8 8 -15 0 -25 -20 -23 -7 -63 31 -97 21 -18 45 -45 54 -61 10
-17 26 -29 38 -29 11 0 26 -9 33 -20 15 -24 66 -27 89 -5 13 14 18 14 37 2 11
-8 23 -25 24 -38 5 -31 20 -49 41 -49 9 0 25 -9 35 -21 13 -16 26 -20 49 -16
19 3 46 -2 67 -12 19 -10 59 -18 89 -19 47 -2 62 -8 108 -43 29 -22 51 -44 48
-49 -3 -6 0 -7 7 -5 8 3 25 -5 38 -17 24 -22 49 -30 60 -18 6 6 41 26 95 55
43 23 112 45 140 45 9 0 28 9 42 20 14 11 35 20 47 20 11 1 39 9 61 20 22 11
46 19 52 20 7 0 15 11 19 25 3 14 10 25 15 25 5 0 6 6 3 14 -4 9 13 23 51 40
54 26 56 26 73 9 9 -11 13 -13 8 -6 -5 7 -5 13 0 13 5 0 4 4 -2 8 -15 10 -26
72 -13 72 6 0 6 6 -1 19 -11 21 -4 51 12 51 6 0 8 9 5 20 -3 11 -1 20 5 20 6
0 8 6 5 14 -3 8 0 22 7 31 15 21 9 65 -10 72 -11 4 -8 13 12 36 17 20 22 32
14 37 -6 4 -18 20 -26 36 -18 34 -6 65 33 83 20 9 24 16 19 34 -4 12 -12 46
-18 75 -10 50 -10 54 11 68 11 8 21 21 21 29 0 7 15 26 33 42 19 15 39 43 46
61 8 17 17 32 22 32 5 0 6 12 3 26 -5 19 -4 25 5 20 6 -4 11 -1 11 8 0 19 70
91 90 92 28 2 145 46 163 62 10 9 25 17 33 18 9 1 21 10 27 18 15 20 75 38 83
25 3 -5 9 -7 14 -4 5 3 11 1 15 -5 4 -6 10 -8 15 -5 5 3 20 1 34 -5 17 -6 26
-6 26 0 0 6 11 8 25 4 14 -3 25 -2 25 2 0 5 11 9 25 9 14 0 25 -4 25 -8 0 -4
10 -2 23 5 23 13 49 17 155 19 34 1 62 6 62 11 0 5 10 13 23 18 28 11 29 11
65 4z m-4461 -61 c5 3 15 2 22 -3 9 -5 0 -7 -22 -7 -25 1 -33 5 -29 15 4 10 7
11 12 2 4 -7 12 -10 17 -7z m64 -40 c10 -11 10 -14 2 -9 -7 4 -13 2 -13 -3 0
-19 -17 -12 -23 9 -6 25 15 27 34 3z m-51 -27 c0 -4 -9 -1 -19 6 -11 7 -17 16
-15 20 5 8 34 -15 34 -26z m141 17 c8 -10 9 -14 2 -10 -6 4 -16 0 -21 -9 -8
-14 -10 -14 -15 5 -3 12 -1 19 4 15 5 -3 9 0 9 5 0 15 5 14 21 -6z m-380 -56
c-16 -16 -25 -1 -10 16 8 8 16 11 18 5 2 -5 -2 -15 -8 -21z m286 27 c-3 -3
-12 -4 -19 -1 -8 3 -5 6 6 6 11 1 17 -2 13 -5z m53 -4 c0 -5 -2 -10 -4 -10 -3
0 -8 5 -11 10 -3 6 -1 10 4 10 6 0 11 -4 11 -10z m76 -12 c6 -21 7 -21 20 -3
8 10 16 16 19 13 3 -3 -1 -12 -9 -21 -8 -8 -12 -18 -8 -22 4 -4 -3 -3 -15 4
-27 14 -30 14 -36 -2 -3 -8 1 -14 9 -14 7 0 10 5 7 10 -4 6 -1 7 6 2 8 -4 9
-11 3 -17 -13 -13 -114 13 -120 32 -3 13 -2 13 7 0 6 -8 11 -10 11 -4 0 15 49
24 57 11 3 -5 2 -7 -4 -4 -5 3 -10 0 -10 -8 0 -8 4 -15 9 -15 7 0 12 15 9 33
0 4 5 7 12 7 8 0 7 4 -3 10 -12 8 -11 10 7 10 14 0 24 -8 29 -22z m-166 -7 c0
-5 -8 -17 -17 -28 -10 -10 -15 -14 -10 -9 12 16 8 26 -10 27 -12 1 -10 4 7 9
14 4 26 8 28 9 1 1 2 -3 2 -8z m-54 -56 c-3 -9 -11 -13 -16 -10 -8 5 -7 11 1
21 14 18 24 11 15 -11z m99 15 c3 -6 -1 -7 -9 -4 -9 3 -16 2 -16 -4 0 -6 6
-13 13 -15 9 -4 9 -6 0 -6 -15 -1 -26 16 -18 29 8 13 22 13 30 0z m-178 -22
c-3 -8 -6 -5 -6 6 -1 11 2 17 5 13 3 -3 4 -12 1 -19z m331 -3 c-3 -3 -9 2 -12
12 -6 14 -5 15 5 6 7 -7 10 -15 7 -18z m-203 -5 c-5 -16 -3 -19 11 -13 12 4
15 3 10 -5 -4 -7 -14 -12 -22 -12 -8 0 -14 -6 -14 -12 0 -9 -3 -9 -9 1 -6 9
-4 23 6 38 19 28 26 30 18 3z m112 9 c-14 -8 -15 -14 -7 -24 18 -21 -3 -25
-30 -5 -22 17 -22 18 -5 17 11 -1 19 3 18 8 -1 6 8 12 20 12 20 2 20 1 4 -8z
m-70 -72 c0 -8 -6 -14 -14 -14 -9 0 -10 4 -2 14 6 7 12 13 14 13 1 0 2 -6 2
-13z m30 -9 c2 -17 0 -19 -7 -8 -5 8 -6 18 -4 22 8 12 10 10 11 -14z m7286 3
c2 -10 0 -26 -6 -36 -7 -14 -5 -22 9 -33 18 -14 18 -14 -4 -9 -12 3 -20 1 -16
-4 3 -5 1 -9 -4 -9 -4 0 -18 19 -31 42 -21 40 -21 43 -5 55 25 19 51 16 57 -6z
m-7303 -41 c0 -11 -7 -20 -15 -20 -18 0 -19 12 -3 28 16 16 18 15 18 -8z m79
-44 c0 -6 -3 -4 -6 4 -4 10 -10 5 -17 -17 -6 -18 -14 -33 -19 -33 -14 0 -34
-25 -30 -37 3 -8 -3 -13 -13 -13 -11 0 -15 4 -9 8 6 4 10 18 10 32 -1 36 24
82 41 76 8 -3 14 0 14 6 0 7 5 6 15 -2 8 -7 15 -18 14 -24z m-289 -7 c0 -18
-18 -9 -23 12 -4 16 -3 18 9 8 8 -6 14 -15 14 -20z m-50 4 c0 -10 -10 -29 -21
-43 l-20 -25 6 25 c14 54 17 60 26 60 5 0 9 -8 9 -17z m370 -23 c-12 -23 -16
-24 -26 -8 -4 6 -3 8 3 5 6 -4 13 0 17 8 3 8 8 15 11 15 3 0 1 -9 -5 -20z
m-737 -25 c-3 -9 -8 -14 -10 -11 -3 3 -2 9 2 15 9 16 15 13 8 -4z m716 -8 c14
-18 4 -27 -28 -26 -26 0 -26 0 -3 9 12 5 22 12 22 15 0 4 -4 3 -10 0 -5 -3
-10 -1 -10 4 0 15 15 14 29 -2z m-761 -22 c-3 -3 -9 2 -12 12 -6 14 -5 15 5 6
7 -7 10 -15 7 -18z m447 -5 c-3 -5 -12 -10 -18 -10 -7 0 -6 4 3 10 19 12 23
12 15 0z m-342 -25 c-3 -9 -8 -14 -10 -11 -3 3 -2 9 2 15 9 16 15 13 8 -4z
m621 -7 c-8 -25 -34 -49 -46 -42 -14 9 -8 24 9 24 9 0 13 3 10 7 -4 3 1 12 11
19 23 18 24 17 16 -8z m-320 -20 c4 3 4 -1 0 -11 -3 -9 -10 -17 -15 -17 -5 0
-9 -7 -9 -15 0 -14 3 -14 23 -1 15 10 27 12 37 6 16 -10 17 -10 -30 -14 -8 -1
-14 -8 -12 -16 2 -10 0 -11 -11 -2 -8 7 -17 9 -21 5 -4 -4 -3 4 2 17 7 18 6
28 -4 38 -7 6 -10 20 -7 29 6 14 8 14 23 -5 10 -12 21 -18 24 -14z m198 15
c-5 -10 -12 -25 -15 -33 -4 -8 -5 -4 -4 10 1 14 7 28 12 32 15 12 17 10 7 -9z
m-292 -13 c0 -13 -7 -20 -20 -20 -11 0 -20 5 -20 11 0 5 5 7 10 4 6 -3 13 1
16 9 8 22 14 20 14 -4z m350 1 c-7 -14 -6 -23 3 -33 20 -22 18 -38 -5 -38 -16
0 -19 3 -10 9 11 6 11 13 1 35 -11 23 -10 29 2 37 20 12 21 11 9 -10z m-536
-17 c3 -9 3 -20 0 -26 -3 -5 2 -16 12 -24 18 -15 18 -15 1 -10 -12 4 -21 -1
-28 -17 -8 -20 -9 -19 -5 8 3 17 8 39 12 49 5 14 4 17 -4 12 -7 -4 -12 -16
-12 -26 0 -19 -13 -34 -22 -24 -3 3 -1 21 5 40 11 36 31 45 41 18z m623 1 c0
-8 -3 -13 -5 -10 -3 3 -11 -3 -19 -13 -10 -12 -13 -13 -11 -2 3 16 20 39 29
40 3 0 6 -7 6 -15z m66 -1 c10 -4 17 -16 17 -33 -1 -22 -2 -24 -13 -10 -7 9
-18 14 -24 12 -7 -3 -13 3 -13 12 0 9 -4 13 -10 10 -6 -3 -7 1 -4 10 4 9 12
13 18 10 6 -3 19 -8 29 -11z m-824 -34 c-10 -7 -10 -12 1 -27 13 -17 13 -17
-4 -2 -15 14 -16 19 -4 38 7 12 15 16 17 10 2 -6 -2 -15 -10 -19z m331 -12 c0
-27 19 -41 21 -15 0 9 2 9 6 -1 2 -6 10 -9 15 -6 6 4 8 3 5 -2 -9 -15 -70 -17
-64 -2 2 7 1 22 -4 34 -5 15 -3 21 7 21 9 0 14 -11 14 -29z m206 0 c4 -7 3 -8
-4 -4 -7 4 -12 2 -12 -4 0 -6 -5 -8 -11 -4 -8 4 -7 9 2 15 18 11 17 11 25 -3z
m1034 6 c0 -8 -19 -13 -24 -6 -3 5 1 9 9 9 8 0 15 -2 15 -3z m-1507 -70 c-3
-8 0 -14 7 -14 6 0 8 -5 4 -11 -3 -6 -9 -7 -13 -3 -3 5 -12 10 -20 12 -10 2
-12 -5 -7 -30 4 -22 3 -28 -3 -18 -8 12 -11 11 -16 -5 -4 -11 -10 -29 -15 -40
-8 -18 -9 -18 -10 5 0 22 -2 23 -11 7 -5 -9 -7 -22 -4 -27 3 -6 2 -10 -3 -10
-6 0 -12 10 -16 23 -10 41 15 104 37 90 6 -3 7 -1 3 5 -4 7 3 16 18 22 20 7
24 14 20 37 l-5 28 20 -29 c11 -16 17 -35 14 -42z m172 46 c3 -5 1 -10 -4 -10
-6 0 -11 5 -11 10 0 6 2 10 4 10 3 0 8 -4 11 -10z m63 -15 c-3 -3 -9 2 -12 12
-6 14 -5 15 5 6 7 -7 10 -15 7 -18z m160 11 c-7 -8 -15 -12 -17 -11 -5 6 10
25 20 25 5 0 4 -6 -3 -14z m-188 -29 c0 7 7 10 16 6 10 -4 14 -14 11 -29 -2
-12 0 -29 4 -36 7 -11 9 -11 9 0 0 7 5 10 10 7 17 -11 11 -43 -7 -41 -10 0
-17 -5 -15 -12 1 -7 -7 -25 -18 -39 -15 -20 -20 -22 -20 -9 0 11 -4 14 -12 9
-7 -4 -22 -9 -33 -10 -16 -2 -17 -1 -5 6 8 6 12 13 8 16 -3 3 -13 -2 -22 -11
-9 -9 -20 -14 -23 -11 -9 10 6 38 19 36 37 -4 58 2 58 19 1 16 2 15 15 -2 13
-17 14 -15 9 25 -7 63 -12 75 -26 61 -9 -9 -9 -15 -1 -23 14 -14 6 -39 -12
-39 -8 0 -16 -8 -18 -17 -3 -10 -6 0 -7 22 -1 22 -4 34 -7 27 -2 -6 -8 -10
-13 -7 -4 3 -11 -2 -14 -11 -5 -12 -2 -15 11 -10 17 6 17 5 1 -8 -10 -7 -18
-20 -18 -29 0 -9 -5 -19 -10 -22 -10 -6 -8 14 7 70 7 26 30 48 43 40 5 -3 17
3 27 13 12 12 21 14 25 8 5 -7 8 -7 8 1z m7557 -38 c2 -16 -1 -19 -9 -11 -5 5
-7 15 -4 21 10 15 12 14 13 -10z m-7687 -1 c0 -5 5 -6 10 -3 6 3 10 2 10 -4 0
-5 -5 -13 -10 -16 -6 -4 -8 -11 -4 -16 3 -6 -3 -5 -14 2 -16 10 -18 16 -10 26
8 10 7 12 -5 8 -8 -4 -18 -2 -21 3 -3 5 6 10 19 10 14 0 25 -5 25 -10z m604
-7 c3 -5 -1 -14 -8 -20 -12 -10 -14 -9 -11 6 2 10 4 19 4 21 2 5 10 2 15 -7z
m-91 -16 c-3 -9 -8 -14 -10 -11 -3 3 -2 9 2 15 9 16 15 13 8 -4z m-546 -21
c15 -14 22 -23 16 -19 -8 3 -13 0 -13 -8 0 -8 -7 -18 -16 -21 -9 -3 -14 -12
-11 -19 11 -30 -29 -13 -45 19 -10 19 -13 34 -8 34 6 0 10 -5 10 -11 0 -5 5
-7 10 -4 6 4 10 3 9 -2 -4 -20 2 -34 12 -28 6 4 8 9 5 12 -3 3 1 12 9 20 20
19 19 31 -1 29 -9 0 -19 5 -21 12 -8 20 14 14 44 -14z m790 -16 c-3 -8 -6 -5
-6 6 -1 11 2 17 5 13 3 -3 4 -12 1 -19z m-537 2 c0 -5 -5 -10 -11 -10 -5 0 -7
5 -4 10 3 6 8 10 11 10 2 0 4 -4 4 -10z m-412 -47 c-2 -9 -11 -17 -21 -19 -9
-1 -15 2 -11 7 3 5 10 6 16 3 7 -5 9 -1 5 9 -3 10 -2 17 4 17 6 0 9 -7 7 -17z
m586 9 c3 -5 -1 -9 -9 -9 -8 0 -12 4 -9 9 3 4 7 8 9 8 2 0 6 -4 9 -8z m-242
-54 c-4 -30 -42 -93 -42 -72 0 5 -5 2 -11 -6 -9 -12 -10 -11 -4 5 4 11 9 25
11 31 3 6 -5 10 -17 10 -13 -1 -24 7 -30 22 -5 13 -5 22 1 22 6 0 10 -10 10
-22 0 -17 3 -19 12 -10 8 8 17 8 31 1 14 -8 18 -8 12 1 -5 8 19 50 30 50 1 0
-1 -15 -3 -32z m2158 -3 c-10 -12 -10 -15 1 -15 12 0 12 -2 0 -9 -8 -5 -20 -7
-27 -4 -9 3 -7 11 9 28 24 24 38 25 17 0z m-2294 2 c16 6 19 -13 4 -22 -5 -3
-10 -11 -10 -17 0 -6 6 -6 15 2 13 11 14 10 9 -5 -5 -13 -4 -16 4 -11 24 14
11 -2 -14 -18 -24 -16 -25 -16 -22 0 2 9 -2 19 -8 21 -20 7 -22 -43 -2 -67 10
-12 18 -17 18 -11 0 7 4 10 9 7 5 -4 7 4 5 16 -2 13 -2 17 2 11 3 -7 10 -13
15 -13 6 0 9 6 8 13 -3 17 11 47 23 47 5 0 6 -6 1 -12 -13 -22 -12 -40 4 -65
12 -18 19 -21 29 -12 11 9 22 6 49 -12 33 -23 47 -49 25 -49 -5 0 -10 -15 -10
-34 0 -26 -4 -33 -17 -32 -10 0 -21 5 -24 10 -4 5 -18 10 -32 11 -20 2 -24 -1
-24 -22 0 -21 3 -24 23 -19 13 4 24 3 24 -2 0 -12 -42 -12 -57 0 -8 6 -11 19
-7 32 6 19 5 20 -12 6 -18 -14 -18 -14 -1 7 12 14 25 19 39 15 15 -4 19 -2 14
7 -4 7 -17 11 -29 9 -22 -3 -23 0 -26 49 -1 16 -6 20 -21 16 -33 -9 -44 -30
-25 -49 12 -13 14 -19 4 -28 -8 -8 -13 -8 -16 2 -3 6 -10 9 -15 5 -7 -4 -9 2
-6 15 4 12 3 22 -2 22 -14 0 -21 33 -9 41 6 4 10 18 7 33 -3 16 -1 23 5 19 6
-4 8 0 4 10 -3 9 -2 19 4 23 6 3 8 13 5 21 -4 8 -2 11 5 7 8 -4 9 1 4 17 -6
19 -5 21 5 12 7 -6 19 -9 26 -6z m-235 -35 c-6 -2 -8 -9 -5 -15 4 -7 -1 -5
-11 5 -22 20 -11 45 12 26 10 -8 11 -14 4 -16z m163 10 c2 -4 -4 -8 -14 -8
-10 0 -16 4 -14 8 3 4 9 8 14 8 5 0 11 -4 14 -8z m785 -9 c-1 -5 0 -10 1 -13
7 -19 7 -40 -1 -40 -5 0 -9 -10 -10 -22 0 -16 -5 -10 -13 17 -8 26 -9 44 -3
53 10 13 28 17 26 5z m-539 -38 c-8 -10 -9 -15 -1 -15 6 0 11 -5 11 -11 0 -8
-4 -9 -13 0 -8 6 -17 7 -21 3 -4 -4 -6 0 -4 8 2 8 8 18 13 22 6 5 5 8 -3 8 -8
0 -16 -9 -19 -20 -3 -11 -9 -20 -13 -20 -16 0 2 38 23 48 28 12 45 -2 27 -23z
m-430 -7 c0 -5 -8 -8 -17 -7 -10 0 -13 3 -6 5 7 3 9 13 6 22 -4 15 -3 15 6 2
6 -8 11 -18 11 -22z m2410 7 c0 -8 -4 -15 -10 -15 -5 0 -7 7 -4 15 4 8 8 15
10 15 2 0 4 -7 4 -15z m-1880 -30 c-7 -9 -15 -13 -19 -10 -3 3 1 10 9 15 21
14 24 12 10 -5z m-554 -31 c-3 -8 -11 -12 -17 -8 -8 4 -7 9 2 15 8 5 10 9 6 9
-5 0 -5 5 -1 12 10 16 18 -7 10 -28z m704 11 c0 -8 -4 -16 -9 -19 -5 -3 -8 5
-8 19 0 14 3 22 8 19 5 -3 9 -11 9 -19z m50 11 c0 -11 -19 -15 -25 -6 -3 5 1
10 9 10 9 0 16 -2 16 -4z m258 -13 c-9 -10 -13 -23 -11 -30 2 -6 -4 -16 -14
-21 -15 -8 -18 -6 -19 14 -1 13 2 21 8 18 5 -3 12 3 15 15 3 12 12 21 21 21
14 0 14 -2 0 -17z m53 -3 c18 0 18 -1 1 -20 -14 -17 -18 -18 -20 -5 -2 8 -7
15 -12 15 -5 0 -6 8 -3 17 4 11 8 12 11 5 2 -7 12 -12 23 -12z m-861 6 c0 -3
-4 -8 -10 -11 -5 -3 -10 -1 -10 4 0 6 5 11 10 11 6 0 10 -2 10 -4z m293 -12
c-3 -8 -9 -12 -13 -9 -5 3 -11 -1 -13 -7 -3 -8 -6 -5 -6 5 -1 11 -7 17 -13 14
-7 -2 -12 -10 -10 -16 1 -7 -2 -10 -8 -6 -24 15 -9 31 29 32 30 0 38 -3 34
-13z m237 -25 c0 -6 -4 -7 -10 -4 -5 3 -10 11 -10 16 0 6 5 7 10 4 6 -3 10
-11 10 -16z m40 17 c0 -3 -4 -8 -10 -11 -5 -3 -10 -1 -10 4 0 6 5 11 10 11 6
0 10 -2 10 -4z m-270 -21 c-7 -8 -17 -15 -23 -15 -6 0 -2 7 9 15 25 19 30 19
14 0z m600 -6 c0 -6 -4 -7 -10 -4 -5 3 -10 11 -10 16 0 6 5 7 10 4 6 -3 10
-11 10 -16z m-815 -11 c-3 -12 0 -25 5 -28 6 -4 5 -14 -4 -26 -16 -21 -33 -14
-20 8 5 7 9 24 10 38 2 28 2 30 8 30 3 0 3 -10 1 -22z m385 18 c0 -11 -19 -15
-25 -6 -3 5 1 10 9 10 9 0 16 -2 16 -4z m-170 -31 c-7 -9 -15 -13 -19 -10 -3
3 1 10 9 15 21 14 24 12 10 -5z m220 0 c0 -8 -7 -15 -15 -15 -13 0 -14 3 -3
15 16 18 18 18 18 0z m1020 -46 c-11 -24 -20 -39 -20 -32 0 15 32 84 37 79 2
-1 -6 -23 -17 -47z m-1162 20 c-2 -6 -7 -10 -12 -9 -5 1 -13 -4 -17 -12 -7
-10 -9 -9 -9 4 0 9 8 19 18 21 9 3 19 5 20 6 2 0 2 -4 0 -10z m619 -31 c-3 -8
-6 -5 -6 6 -1 11 2 17 5 13 3 -3 4 -12 1 -19z m53 4 c0 -12 -3 -12 -15 -2 -8
7 -15 13 -15 15 0 1 7 2 15 2 8 0 15 -7 15 -15z m-177 -9 c-7 -2 -19 -2 -25 0
-7 3 -2 5 12 5 14 0 19 -2 13 -5z m194 -55 c-3 -8 -6 -5 -6 6 -1 11 2 17 5 13
3 -3 4 -12 1 -19z m446 7 c-3 -9 -8 -14 -10 -11 -3 3 -2 9 2 15 9 16 15 13 8
-4z m817 -15 c0 -5 -7 -7 -15 -4 -8 4 -15 8 -15 10 0 2 7 4 15 4 8 0 15 -4 15
-10z m-1585 -30 c-3 -5 -1 -11 5 -15 6 -4 8 -10 5 -15 -3 -5 6 -12 20 -16 19
-5 25 -12 22 -24 -5 -19 28 -46 38 -30 3 6 3 15 0 20 -3 6 -1 10 4 10 6 0 11
-11 11 -23 0 -13 3 -27 6 -30 4 -3 8 -22 9 -41 2 -30 0 -33 -10 -19 -8 11 -14
13 -19 5 -10 -17 -46 -15 -46 3 0 8 -7 15 -15 15 -8 0 -15 -4 -15 -10 0 -14
-16 -12 -33 5 -8 8 -17 11 -21 8 -3 -3 -20 8 -37 26 -20 22 -37 31 -50 28 -18
-5 -18 -4 -1 18 10 13 20 19 23 13 5 -7 14 -5 28 4 11 8 18 18 13 22 -4 4 -2
7 3 6 24 -5 35 1 35 20 0 11 5 20 11 20 5 0 7 5 3 12 -4 7 -3 8 5 4 6 -4 9
-11 6 -16z m594 -30 c0 -10 -2 -11 -6 -2 -2 6 -8 10 -13 7 -4 -3 -6 4 -3 16 4
16 8 17 14 7 5 -7 8 -20 8 -28z m131 4 c-6 -6 -8 -13 -5 -16 3 -2 -2 -5 -10
-5 -19 0 -19 13 0 21 9 3 12 12 9 23 -5 15 -4 15 4 3 7 -9 7 -19 2 -26z m868
1 c2 -31 -15 -42 -23 -14 -6 18 0 29 20 39 0 0 2 -11 3 -25z m-1522 6 c-4 -5
-1 -12 4 -14 6 -3 5 -4 -2 -3 -15 3 -23 26 -8 26 6 0 9 -4 6 -9z m442 -36 c-3
-3 -9 2 -12 12 -6 14 -5 15 5 6 7 -7 10 -15 7 -18z m-378 -1 c0 -2 -7 -4 -15
-4 -8 0 -15 4 -15 10 0 5 7 7 15 4 8 -4 15 -8 15 -10z m533 -11 c-4 -16 -7
-35 -7 -44 0 -15 -3 -15 -23 -2 -15 10 -23 11 -23 4 0 -22 -30 -10 -36 14 -7
29 -1 40 16 30 8 -5 8 -11 1 -19 -8 -10 -3 -13 19 -13 25 0 29 4 24 19 -4 12
0 18 11 18 9 0 13 5 10 10 -3 6 -1 10 5 10 6 0 8 -10 3 -27z m-853 -37 c0 -7
-7 -19 -15 -26 -12 -10 -16 -9 -21 5 -4 10 -1 21 7 26 20 12 29 11 29 -5z
m328 -41 c-6 -14 -13 -23 -15 -21 -5 5 15 46 22 46 3 0 -1 -11 -7 -25z m146
-1 c3 -8 2 -12 -4 -9 -6 3 -10 10 -10 16 0 14 7 11 14 -7z m-356 -73 c4 -25
-6 -27 -35 -6 -14 10 -19 22 -16 35 5 19 8 19 27 7 11 -8 22 -24 24 -36z m-68
21 c0 -9 -7 -11 -22 -7 -37 11 -40 21 -8 20 18 0 30 -5 30 -13z m300 -3 c0 -5
9 -9 20 -9 22 0 23 -1 14 -24 -7 -19 -40 -21 -51 -3 -13 20 -10 55 4 50 7 -3
13 -9 13 -14z m-110 -9 c8 -5 11 -10 5 -10 -5 0 -17 5 -25 10 -8 5 -10 10 -5
10 6 0 17 -5 25 -10z m-1093 -22 c-3 -8 -6 -5 -6 6 -1 11 2 17 5 13 3 -3 4
-12 1 -19z m1358 2 c7 -6 16 -5 25 3 9 8 11 9 6 0 -10 -18 11 -25 48 -15 28 8
34 7 29 -4 -3 -9 2 -14 18 -15 l24 0 -25 -10 c-14 -6 -32 -8 -42 -6 -9 3 -18
1 -20 -4 -2 -5 -23 -3 -48 5 -25 7 -50 11 -56 9 -16 -5 -35 22 -28 40 6 16 48
14 69 -3z m180 1 c-3 -6 3 -14 12 -20 16 -9 16 -10 -3 -8 -14 1 -21 7 -19 17
5 21 4 20 11 20 3 0 3 -4 -1 -9z m8011 -2001 c0 -11 -1 -20 -2 -20 -1 0 -9 3
-18 6 -12 5 -13 9 -3 20 17 19 23 17 23 -6z m19 -101 c-4 -12 -13 -18 -20 -15
-8 3 -17 -3 -20 -15 -4 -10 -10 -17 -15 -14 -5 3 -12 -5 -16 -19 -6 -26 -46
-40 -63 -23 -6 6 -11 9 -12 7 -3 -17 -9 -57 -11 -67 -1 -7 -6 -9 -11 -6 -6 4
-7 -4 -3 -21 5 -20 3 -26 -5 -21 -8 5 -9 0 -4 -16 l7 -24 -16 22 c-9 12 -13
29 -9 39 4 12 3 15 -6 10 -8 -6 -10 1 -6 25 7 40 14 51 26 43 5 -3 8 -2 7 3
-1 4 6 22 15 38 16 28 17 28 11 5 -4 -21 -1 -26 15 -27 12 -1 21 3 21 8 0 6 5
7 11 4 6 -4 10 -1 8 6 -1 8 -1 23 0 34 1 17 3 18 11 5 8 -11 9 -8 4 13 -3 15
-2 27 2 26 21 -4 35 2 29 11 -4 6 -1 17 5 25 11 13 15 11 32 -10 12 -16 17
-32 13 -46z m12 65 c-3 -3 -12 -4 -19 -1 -8 3 -5 6 6 6 11 1 17 -2 13 -5z
m-117 -84 c0 -5 -2 -10 -4 -10 -3 0 -8 5 -11 10 -3 6 -1 10 4 10 6 0 11 -4 11
-10z m-173 -65 c0 -8 -6 -15 -14 -15 -17 0 -17 17 0 23 6 3 12 6 13 6 0 1 1
-6 1 -14z m-37 -37 c0 6 8 12 17 12 23 0 4 -19 -25 -25 -15 -3 -19 0 -15 12 5
12 7 12 14 1 7 -10 9 -10 9 0z m28 -49 c-3 -8 -7 -3 -11 10 -4 17 -3 21 5 13
5 -5 8 -16 6 -23z m-31 6 c0 -8 -4 -15 -9 -15 -10 0 -11 14 -1 23 9 10 10 9
10 -8z m94 -33 c-18 -32 -41 -58 -39 -42 2 8 9 20 17 26 8 6 11 18 8 27 -4 11
-2 14 8 10 10 -3 12 -10 6 -21z m16 -19 c-4 -3 -1 -13 6 -22 11 -14 10 -14 -5
-2 -16 12 -16 31 -1 31 4 0 3 -3 0 -7z m143 -50 c0 -5 -5 -15 -10 -23 -8 -12
-10 -11 -10 8 0 12 5 22 10 22 6 0 10 -3 10 -7z m-27 -73 c-3 -14 -10 -29 -16
-35 -6 -7 -8 -3 -4 13 3 12 1 22 -4 22 -5 0 -9 -5 -9 -12 0 -6 -2 -9 -5 -6 -3
3 2 19 12 36 20 35 36 24 26 -18z m-123 -15 c0 -8 -4 -15 -10 -15 -5 0 -7 7
-4 15 4 8 8 15 10 15 2 0 4 -7 4 -15z m-90 -9 c0 -2 -7 -7 -16 -10 -8 -3 -12
-2 -9 4 6 10 25 14 25 6z m175 -16 c-3 -5 -11 -10 -16 -10 -6 0 -7 5 -4 10 3
6 11 10 16 10 6 0 7 -4 4 -10z m-178 -22 c-3 -8 -6 -5 -6 6 -1 11 2 17 5 13 3
-3 4 -12 1 -19z m80 6 c-3 -3 -12 -4 -19 -1 -8 3 -5 6 6 6 11 1 17 -2 13 -5z
m110 -9 c0 -8 -4 -12 -8 -10 -8 6 -22 -25 -14 -33 3 -3 5 1 5 8 0 7 2 11 5 8
3 -2 -1 -22 -8 -43 -10 -28 -16 -35 -22 -25 -5 8 -4 15 1 17 5 2 8 22 6 44 -3
27 -1 39 6 35 6 -3 13 -2 17 4 9 14 12 13 12 -5z m-351 -37 c4 -7 4 -10 -1 -6
-4 4 -14 3 -22 -4 -11 -8 -12 -7 -7 6 7 19 20 21 30 4z m228 -34 c9 -3 16 -10
16 -16 0 -5 -4 -7 -9 -4 -5 4 -11 3 -14 -1 -2 -5 -2 -3 -1 4 2 6 -2 14 -9 17
-18 7 -1 7 17 0z m-115 -21 c-6 -7 -15 -10 -20 -7 -13 8 -3 21 15 21 12 0 13
-4 5 -14z m195 -36 c-2 -7 -6 -27 -8 -46 -2 -18 -10 -37 -17 -42 -12 -7 -11
-9 1 -9 12 0 12 -2 2 -8 -7 -5 -15 -22 -18 -38 -2 -16 -7 -36 -11 -44 -6 -16
-14 -55 -16 -81 -1 -10 -8 -14 -18 -12 -9 3 -20 0 -23 -6 -5 -7 -1 -8 9 -5 19
8 16 -16 -4 -32 -8 -6 -12 -18 -8 -27 4 -10 -2 -17 -19 -21 -14 -4 -22 -11
-19 -17 5 -6 12 -5 23 3 13 11 14 11 7 -2 -6 -8 -10 -17 -11 -20 -11 -37 -18
-50 -25 -50 -5 0 -8 -3 -7 -7 5 -13 -43 -83 -52 -78 -5 3 -11 -9 -15 -26 -5
-21 -11 -29 -21 -25 -9 3 -12 1 -9 -4 3 -6 2 -10 -4 -10 -5 0 -13 5 -16 10 -4
7 -14 5 -27 -4 -11 -8 -27 -12 -34 -9 -8 3 -17 -4 -23 -18 -10 -26 -5 -43 10
-34 5 4 9 -1 9 -9 0 -9 -7 -16 -15 -16 -9 0 -15 -9 -15 -25 0 -18 -4 -23 -15
-19 -9 4 -15 0 -15 -10 0 -9 -4 -16 -10 -16 -5 0 -12 -11 -16 -25 -3 -14 -10
-25 -16 -25 -5 0 -6 -5 -3 -10 4 -6 3 -10 -2 -9 -21 4 -24 -2 -12 -18 13 -17
13 -17 -5 -3 -17 13 -21 12 -42 -15 -13 -17 -24 -25 -24 -20 0 6 6 17 12 23
10 10 10 15 -2 23 -13 9 -13 10 1 6 13 -4 15 1 13 24 -2 17 0 28 5 25 11 -7
23 22 15 35 -3 5 -10 6 -16 3 -7 -4 -8 -2 -4 4 4 7 1 12 -8 12 -21 0 -20 4 9
36 13 14 23 30 20 33 -2 4 5 15 16 24 10 9 19 27 19 39 0 17 3 19 9 10 7 -11
9 -10 15 3 3 10 11 13 18 9 9 -5 9 -3 -1 9 -7 9 -9 17 -3 17 5 0 12 9 15 20 3
11 9 20 14 19 19 -3 34 2 28 10 -3 5 0 13 6 16 6 4 8 18 4 32 -4 17 -2 23 6
18 16 -10 30 16 17 32 -8 10 -5 13 10 13 12 0 28 10 37 23 16 22 16 22 11 -13
-4 -32 -4 -34 10 -16 8 11 14 25 14 32 0 6 7 17 15 24 8 7 12 16 9 21 -3 5 0
9 6 9 6 0 8 5 5 10 -3 6 -3 10 2 10 13 0 42 57 33 67 -4 4 -11 19 -15 33 -4
18 -4 21 4 11 8 -12 12 -12 25 -2 9 7 14 17 11 21 -3 4 2 13 10 20 7 6 23 27
34 46 16 27 17 34 6 34 -8 0 -15 -7 -15 -16 0 -8 -4 -12 -10 -9 -6 4 -10 -5
-10 -20 0 -17 -4 -24 -12 -19 -7 5 -8 3 -3 -6 5 -8 4 -11 -3 -6 -7 4 -10 -1
-7 -14 2 -11 0 -22 -4 -24 -10 -7 -8 35 2 52 5 6 6 16 3 20 -9 16 43 52 77 53
24 1 27 3 9 6 -16 3 -22 9 -18 20 3 8 6 20 6 26 0 7 4 6 10 -3 6 -9 5 -17 -3
-23 -8 -6 -8 -7 3 -4 8 2 14 13 12 23 -3 18 -3 18 12 -1 8 -11 16 -17 17 -12
1 7 5 22 8 32 0 2 7 2 15 -1 8 -3 13 -11 10 -17z m-94 -3 c0 -2 -7 -4 -15 -4
-8 0 -15 4 -15 10 0 5 7 7 15 4 8 -4 15 -8 15 -10z m-105 -64 c-3 -5 -12 -10
-18 -10 -7 0 -6 4 3 10 19 12 23 12 15 0z m-221 -144 c-1 -57 -31 -113 -89
-166 -15 -14 -36 -43 -48 -65 -11 -22 -22 -34 -24 -27 -3 6 -9 10 -14 7 -8 -6
31 75 42 85 3 3 13 21 22 41 9 20 35 55 57 79 39 42 50 57 30 45 -5 -3 -10 -1
-10 4 0 6 4 11 9 11 5 0 13 9 16 20 3 11 7 20 8 20 2 0 2 -24 1 -54z m230 -12
c3 -8 2 -12 -4 -9 -6 3 -10 10 -10 16 0 14 7 11 14 -7z m-234 -118 c0 -11 -19
-15 -25 -6 -3 5 1 10 9 10 9 0 16 -2 16 -4z m-160 -150 c0 -2 -8 -10 -17 -17
-16 -13 -17 -12 -4 4 13 16 21 21 21 13z m-60 -84 c-12 -16 -34 -35 -49 -41
-21 -10 -17 -4 19 32 50 50 63 54 30 9z m374 -54 c-4 -5 -11 -5 -18 1 -7 6
-17 7 -22 3 -4 -4 -2 1 5 11 10 13 17 15 27 6 8 -6 11 -15 8 -21z m-68 3 c-4
-5 -1 -12 4 -14 6 -3 5 -4 -2 -3 -15 3 -23 26 -8 26 6 0 9 -4 6 -9z m-363 -66
c-3 -9 -8 -14 -10 -11 -3 3 -2 9 2 15 9 16 15 13 8 -4z m197 -70 c0 -2 -9 -3
-19 -2 -11 0 -18 5 -15 9 4 6 34 0 34 -7z m-22 -41 c-1 -5 -9 -9 -16 -10 -10
-2 -11 1 -1 12 12 14 24 13 17 -2z m-333 -24 c-3 -5 -12 -10 -18 -10 -7 0 -6
4 3 10 19 12 23 12 15 0z m68 -63 c4 3 7 1 7 -5 0 -7 -9 -12 -19 -12 -11 0
-31 -11 -46 -24 -22 -20 -23 -25 -10 -36 15 -13 79 -4 70 10 -7 11 22 33 34
26 5 -4 12 -2 16 4 10 17 32 11 38 -9 3 -12 -3 -27 -12 -35 -23 -21 -37 -21
-17 0 22 21 21 40 -1 23 -40 -30 -63 -63 -57 -81 4 -14 -6 -29 -35 -55 -23
-19 -41 -43 -41 -53 0 -22 -57 -95 -62 -79 -2 6 -24 -10 -49 -35 -25 -25 -43
-49 -40 -52 3 -4 0 -4 -8 1 -11 6 -10 11 5 24 26 22 73 79 53 63 -9 -7 -24
-10 -33 -6 -9 3 -16 1 -16 -6 0 -6 5 -8 12 -4 7 4 8 3 4 -5 -4 -6 -12 -9 -17
-5 -5 3 -21 -1 -34 -10 -21 -14 -24 -14 -19 -1 4 11 -1 15 -17 17 -13 0 -36 2
-52 3 -26 2 -52 15 -29 15 6 0 9 7 5 16 -8 22 -23 -2 -23 -38 0 -16 -4 -28 -9
-28 -5 0 -18 -19 -30 -42 l-21 -43 4 45 c3 27 12 49 22 57 16 12 23 28 26 59
1 7 12 11 25 9 15 -1 27 5 33 16 14 26 13 52 -2 43 -7 -4 -3 3 9 15 22 21 49
29 38 11 -3 -5 -1 -10 4 -10 6 0 11 -7 11 -16 0 -9 3 -14 8 -12 62 30 82 44
78 55 -3 7 0 13 7 13 7 0 4 5 -6 11 -9 6 -15 15 -11 21 4 7 9 6 14 -2 6 -9 11
-7 19 9 7 12 16 19 21 16 5 -3 12 0 16 6 5 8 3 9 -6 4 -10 -6 -12 -4 -7 8 9
23 -5 21 -26 -3 -14 -17 -20 -18 -37 -8 -27 17 -20 32 16 34 16 0 40 6 52 13
19 10 21 9 15 -5 -6 -15 -4 -15 18 -1 13 9 37 33 52 52 21 27 32 33 41 26 7
-6 16 -8 19 -4z m-963 -127 c0 -5 -5 -10 -11 -10 -5 0 -7 5 -4 10 3 6 8 10 11
10 2 0 4 -4 4 -10z m504 -38 c3 -5 -1 -9 -9 -9 -8 0 -12 4 -9 9 3 4 7 8 9 8 2
0 6 -4 9 -8z m606 -36 c0 -3 -4 -8 -10 -11 -5 -3 -10 -1 -10 4 0 6 5 11 10 11
6 0 10 -2 10 -4z m-720 -46 c0 -5 -4 -10 -10 -10 -5 0 -10 5 -10 10 0 6 5 10
10 10 6 0 10 -4 10 -10z m600 -15 c-6 -8 -9 -19 -5 -25 4 -6 3 -10 -2 -9 -29
5 -41 -3 -39 -24 2 -14 -2 -24 -10 -24 -7 0 -11 4 -8 9 3 4 -2 5 -10 2 -9 -3
-13 -10 -10 -15 3 -5 -5 -9 -17 -9 -17 0 -20 4 -16 21 4 16 2 19 -11 14 -15
-5 -15 -4 -2 7 8 7 20 20 28 28 12 13 13 13 8 -2 -7 -23 29 -25 38 -2 3 8 10
13 15 10 4 -3 16 3 26 14 21 23 34 27 15 5z m48 -2 c-2 -10 -11 -19 -21 -21
-16 -3 -17 -1 -7 17 13 25 33 28 28 4z m-563 -56 c-2 -27 -41 -74 -52 -63 -5
4 0 13 9 20 10 7 22 25 27 39 13 33 17 34 16 4z m-72 -22 c-7 -21 -13 -19 -13
6 0 11 4 18 10 14 5 -3 7 -12 3 -20z m432 -25 c-3 -5 2 -10 11 -10 22 0 13 -9
-14 -15 -11 -2 -27 4 -34 13 -7 9 -8 13 -3 10 6 -4 17 -3 25 3 19 11 23 11 15
-1z m-518 -25 c0 -8 -4 -12 -9 -9 -5 3 -6 10 -3 15 9 13 12 11 12 -6z m126
-25 c-3 -11 -12 -20 -19 -20 -12 0 -12 4 -2 20 7 11 16 20 19 20 4 0 5 -9 2
-20z m323 5 c-1 -8 -8 -21 -16 -28 -10 -10 -11 -9 -4 3 5 8 9 18 10 23 3 14 4
17 8 17 2 0 3 -7 2 -15z m61 -3 c-9 -2 -14 -8 -11 -14 4 -6 2 -8 -4 -4 -5 3
-13 0 -16 -6 -3 -7 -4 -4 -3 7 2 22 26 36 42 26 6 -3 2 -7 -8 -9z m84 -15
l-24 -22 19 27 c10 14 21 24 23 22 3 -3 -6 -15 -18 -27z m-351 4 c0 -5 -7 -11
-14 -14 -10 -4 -13 -1 -9 9 6 15 23 19 23 5z m154 -6 c-4 -8 -8 -15 -10 -15
-2 0 -4 7 -4 15 0 8 4 15 10 15 5 0 7 -7 4 -15z m-308 -30 c1 -7 -4 -16 -12
-19 -16 -6 -19 10 -4 19 6 4 7 12 4 18 -4 7 -3 8 1 4 5 -4 10 -14 11 -22z
m327 -19 c4 -9 -5 -22 -21 -32 l-27 -17 18 21 c11 11 16 26 12 31 -3 6 -2 11
3 11 6 0 12 -6 15 -14z m127 -20 c0 -2 -7 -9 -15 -16 -12 -10 -15 -10 -15 4 0
9 7 16 15 16 8 0 15 -2 15 -4z m-136 -75 c-10 -10 -21 -14 -23 -8 -4 10 17 27
33 27 5 0 1 -8 -10 -19z m86 12 c0 -5 -13 -17 -28 -27 l-27 -19 24 26 c26 28
31 32 31 20z m-130 -43 c-6 -11 -15 -20 -19 -20 -5 0 -19 -11 -32 -25 -24 -25
-49 -33 -49 -16 0 5 9 12 19 16 11 3 34 19 53 35 39 35 42 36 28 10z m64 -44
c-3 -9 -14 -15 -23 -14 -9 2 -15 -3 -13 -9 3 -18 -3 -16 -19 4 -8 9 -9 14 -3
10 7 -4 15 0 18 9 4 9 13 14 21 10 8 -3 15 0 15 6 0 6 2 9 5 6 3 -3 3 -13 -1
-22z m-83 -59 c-6 -8 -9 -16 -6 -19 3 -3 -3 -11 -12 -19 -16 -13 -17 -12 -4 4
7 9 10 17 6 17 -4 0 -2 7 5 15 7 8 15 15 17 15 3 0 0 -6 -6 -13z m-41 -67 c-8
-5 -19 -10 -25 -10 -5 0 -3 5 5 10 8 5 20 10 25 10 6 0 3 -5 -5 -10z m-146
-38 c3 -5 -1 -9 -9 -9 -8 0 -12 4 -9 9 3 4 7 8 9 8 2 0 6 -4 9 -8z m-280 -30
c3 -5 -1 -9 -9 -9 -8 0 -12 4 -9 9 3 4 7 8 9 8 2 0 6 -4 9 -8z m-2039 -362 c3
-5 1 -10 -4 -10 -6 0 -11 5 -11 10 0 6 2 10 4 10 3 0 8 -4 11 -10z m1130 -390
c-3 -5 -12 -10 -18 -10 -7 0 -6 4 3 10 19 12 23 12 15 0z m-110 -10 c3 -5 1
-10 -4 -10 -6 0 -11 5 -11 10 0 6 2 10 4 10 3 0 8 -4 11 -10z m-285 -180 c0
-5 -2 -10 -4 -10 -3 0 -8 5 -11 10 -3 6 -1 10 4 10 6 0 11 -4 11 -10z m-836
-181 c-8 -13 -21 -11 -27 5 -4 10 0 12 14 9 10 -3 16 -9 13 -14z m-126 -36
c-10 -2 -26 -2 -35 0 -10 3 -2 5 17 5 19 0 27 -2 18 -5z"/>
<path d="M5760 9674 c0 -8 5 -12 10 -9 6 4 8 11 5 16 -9 14 -15 11 -15 -7z"/>
<path d="M8085 8701 c-3 -5 -1 -12 5 -16 5 -3 10 1 10 9 0 18 -6 21 -15 7z"/>
<path d="M5157 6914 c-9 -10 21 -36 33 -29 8 5 7 11 -1 21 -12 15 -22 18 -32
8z"/>
<path d="M5450 6830 c0 -5 5 -10 10 -10 6 0 10 5 10 10 0 6 -4 10 -10 10 -5 0
-10 -4 -10 -10z"/>
<path d="M5885 6807 c-40 -22 -46 -34 -20 -40 19 -3 25 0 25 14 0 9 8 19 18
21 9 2 13 6 7 10 -6 3 -19 1 -30 -5z"/>
<path d="M5965 6770 c3 -5 8 -10 11 -10 2 0 4 5 4 10 0 6 -5 10 -11 10 -5 0
-7 -4 -4 -10z"/>
<path d="M6098 6726 c-10 -7 -15 -16 -11 -19 3 -4 -1 -7 -10 -7 -9 0 -17 -4
-17 -10 0 -5 -7 -10 -15 -10 -8 0 -15 -6 -15 -14 0 -28 82 15 85 44 0 3 4 11
8 18 11 16 -3 15 -25 -2z"/>
<path d="M5585 6710 c3 -5 8 -10 11 -10 2 0 4 5 4 10 0 6 -5 10 -11 10 -5 0
-7 -4 -4 -10z"/>
<path d="M5554 6696 c-8 -21 6 -38 23 -28 8 5 8 12 -3 26 -12 18 -14 18 -20 2z"/>
<path d="M5490 6682 c0 -12 3 -12 18 -1 9 7 19 14 21 16 2 1 -6 1 -18 0 -11
-1 -21 -8 -21 -15z"/>
<path d="M4451 6674 c0 -11 3 -14 6 -6 3 7 2 16 -1 19 -3 4 -6 -2 -5 -13z"/>
<path d="M5610 6660 c-13 -8 -12 -10 3 -10 9 0 17 5 17 10 0 12 -1 12 -20 0z"/>
<path d="M5644 6654 c3 -8 6 -18 6 -20 0 -2 4 -4 8 -4 15 0 9 29 -6 35 -10 4
-12 0 -8 -11z"/>
<path d="M5896 6604 c-4 -15 -14 -33 -22 -39 -11 -8 -13 -17 -6 -35 l9 -24 7
27 c4 17 11 25 18 21 7 -4 8 -3 4 4 -4 7 -1 12 6 12 9 0 9 3 -2 10 -13 9 -13
11 0 20 11 7 12 12 4 20 -9 9 -13 4 -18 -16z"/>
<path d="M6674 5934 c3 -9 6 -22 6 -30 0 -7 6 -11 14 -8 12 5 13 11 4 30 -12
26 -34 34 -24 8z"/>
<path d="M6350 5934 c1 -19 28 -45 35 -34 4 6 5 12 4 13 -2 2 -12 9 -21 16
-10 7 -18 10 -18 5z"/>
<path d="M6400 5910 c0 -5 5 -10 11 -10 5 0 7 -6 3 -12 -4 -7 -4 -10 1 -6 4 4
14 3 22 -3 22 -19 14 2 -9 22 -24 22 -28 23 -28 9z"/>
<path d="M6613 5898 c-4 -7 -8 -16 -9 -20 -1 -5 -2 -11 -3 -15 -1 -5 -6 0 -12
10 -11 18 -29 23 -29 7 0 -5 8 -14 19 -19 14 -8 23 -5 40 13 13 14 18 26 12
30 -5 4 -13 1 -18 -6z"/>
<path d="M6485 5869 c3 -17 2 -19 -10 -9 -10 9 -16 7 -24 -7 -6 -10 -11 -12
-11 -5 0 21 -18 13 -24 -12 -3 -14 -14 -27 -24 -29 -15 -4 -15 -5 0 -6 9 0 20
4 23 9 3 6 11 10 17 10 7 0 6 -5 -1 -14 -8 -9 -8 -16 -2 -20 5 -4 12 -2 16 4
3 5 12 10 18 10 7 0 6 -4 -3 -10 -8 -5 -10 -10 -5 -10 17 1 45 27 37 35 -4 5
1 5 11 2 12 -5 17 -1 17 11 0 11 3 13 8 5 11 -18 59 -23 72 -8 13 15 -8 26
-40 20 -12 -2 -23 2 -27 10 -5 15 -25 22 -20 7 1 -4 -8 -20 -20 -36 -13 -16
-23 -23 -23 -17 0 7 -4 9 -10 6 -6 -3 -7 1 -4 9 3 9 10 14 14 11 9 -6 23 12
26 32 1 7 -2 15 -6 18 -5 3 -7 -4 -5 -16z"/>
<path d="M6636 5871 c-4 -5 -2 -12 3 -15 5 -4 12 -2 15 3 4 5 2 12 -3 15 -5 4
-12 2 -15 -3z"/>
<path d="M6377 5855 c-8 -19 13 -31 23 -14 9 14 4 29 -10 29 -4 0 -10 -7 -13
-15z"/>
<path d="M4451 5794 c0 -11 3 -14 6 -6 3 7 2 16 -1 19 -3 4 -6 -2 -5 -13z"/>
<path d="M6620 5800 c-13 -9 -13 -10 0 -11 8 0 27 -2 43 -3 15 -2 27 2 27 7 0
6 18 7 46 3 25 -3 43 -2 40 3 -8 13 -106 10 -106 -3 0 -6 -5 -4 -10 4 -9 13
-10 13 -10 0 0 -11 -2 -12 -8 -3 -5 8 -13 9 -22 3z"/>
<path d="M2766 5765 c4 -8 11 -15 16 -15 6 0 5 6 -2 15 -7 8 -14 15 -16 15 -2
0 -1 -7 2 -15z"/>
<path d="M4241 5744 c0 -11 3 -14 6 -6 3 7 2 16 -1 19 -3 4 -6 -2 -5 -13z"/>
<path d="M4350 5651 c0 -5 5 -13 10 -16 6 -3 10 -2 10 4 0 5 -4 13 -10 16 -5
3 -10 2 -10 -4z"/>
<path d="M3872 5563 c-1 -26 -7 -43 -14 -43 -8 0 -6 -6 5 -17 22 -22 23 -18
16 47 -5 52 -6 53 -7 13z"/>
<path d="M4402 5528 c2 -12 9 -23 16 -26 18 -6 15 35 -4 42 -11 4 -15 0 -12
-16z"/>
<path d="M4168 5533 c7 -3 16 -2 19 1 4 3 -2 6 -13 5 -11 0 -14 -3 -6 -6z"/>
<path d="M4427 5493 c-25 -6 -3 -33 27 -33 19 1 19 2 3 11 -9 6 -15 14 -12 20
4 5 5 8 3 8 -2 -1 -11 -3 -21 -6z"/>
<path d="M5908 5457 c-4 -20 -1 -23 14 -19 22 5 23 15 4 31 -11 9 -15 7 -18
-12z"/>
<path d="M5287 5463 c-13 -12 -7 -25 8 -19 8 3 15 1 15 -4 0 -6 -5 -10 -11
-10 -5 0 -7 -5 -3 -11 5 -8 8 -8 14 0 3 7 13 10 21 8 8 -2 11 -2 7 0 -5 3 -8
11 -8 18 0 7 -7 16 -16 19 -19 7 -19 7 -27 -1z"/>
<path d="M4410 5298 c0 -6 3 -8 6 -5 4 4 17 -5 30 -20 13 -15 26 -24 30 -21 7
7 -43 58 -57 58 -5 0 -9 -5 -9 -12z"/>
<path d="M4370 5290 c0 -6 7 -13 15 -17 24 -9 27 1 5 15 -13 8 -20 8 -20 2z"/>
<path d="M7300 5280 c-12 -8 -9 -10 12 -10 15 0 30 5 33 10 8 13 -25 13 -45 0z"/>
<path d="M4462 5180 c0 -14 2 -19 5 -12 2 6 2 18 0 25 -3 6 -5 1 -5 -13z"/>
<path d="M4485 5180 c-4 -6 5 -10 19 -10 14 0 26 5 26 10 0 6 -9 10 -19 10
-11 0 -23 -4 -26 -10z"/>
<path d="M7261 4864 c0 -11 3 -14 6 -6 3 7 2 16 -1 19 -3 4 -6 -2 -5 -13z"/>
<path d="M7285 4841 c2 -9 4 -19 4 -23 2 -15 21 -8 21 8 0 9 5 12 13 8 9 -5 9
-4 0 6 -19 20 -41 21 -38 1z"/>
<path d="M7320 4806 c0 -8 5 -18 10 -21 6 -3 10 1 10 9 0 8 -4 18 -10 21 -5 3
-10 -1 -10 -9z"/>
<path d="M7365 4800 c-3 -6 1 -7 9 -4 18 7 21 14 7 14 -6 0 -13 -4 -16 -10z"/>
<path d="M7311 4711 c-12 -22 -5 -27 19 -11 11 7 12 12 3 21 -8 8 -14 6 -22
-10z"/>
<path d="M4747 4690 c-3 -11 -1 -23 4 -26 5 -3 9 6 9 20 0 31 -6 34 -13 6z"/>
<path d="M4860 4698 c0 -9 5 -20 10 -23 13 -8 13 5 0 25 -8 13 -10 13 -10 -2z"/>
<path d="M4660 4687 c0 -5 6 -7 14 -4 7 3 18 1 23 -4 7 -7 12 -6 16 4 3 9 -3
13 -24 13 -16 0 -29 -4 -29 -9z"/>
<path d="M7315 4681 c-6 -11 9 -23 19 -14 9 9 7 23 -3 23 -6 0 -12 -4 -16 -9z"/>
<path d="M7346 4665 c-3 -8 -1 -15 4 -15 6 0 10 7 10 15 0 8 -2 15 -4 15 -2 0
-6 -7 -10 -15z"/>
<path d="M4830 4645 c-11 -13 -10 -14 4 -9 9 3 16 10 16 15 0 13 -6 11 -20 -6z"/>
<path d="M4905 4626 c-10 -16 -13 -30 -7 -46 7 -19 9 -16 19 24 12 52 10 56
-12 22z"/>
<path d="M4845 4596 c4 -31 13 -46 28 -46 7 0 6 4 -3 10 -12 8 -12 10 3 16 9
3 14 10 11 15 -3 5 -10 7 -15 4 -5 -4 -9 1 -9 9 0 9 -4 16 -9 16 -4 0 -7 -11
-6 -24z"/>
<path d="M4932 4594 c-7 -8 -12 -19 -10 -23 2 -5 11 2 21 15 19 26 10 33 -11
8z"/>
<path d="M5105 4550 c-3 -5 -1 -10 4 -10 6 0 11 5 11 10 0 6 -2 10 -4 10 -3 0
-8 -4 -11 -10z"/>
<path d="M5145 4550 c4 -7 2 -16 -6 -21 -11 -7 -11 -11 -1 -17 10 -7 8 -14 -8
-35 -11 -14 -16 -28 -12 -31 5 -3 15 6 22 19 7 14 19 25 27 25 12 0 14 5 17
43 1 6 -3 12 -9 12 -5 0 -16 4 -24 9 -10 7 -12 6 -6 -4z"/>
<path d="M4956 4497 c-7 -28 -3 -30 16 -7 13 15 14 19 3 24 -7 2 -15 -4 -19
-17z"/>
<path d="M5007 4480 c-31 -34 -34 -45 -12 -36 9 3 18 -1 21 -9 8 -19 24 -19
24 0 0 8 -5 14 -11 13 -16 -4 -21 14 -9 32 9 13 11 13 20 0 5 -8 10 -10 10 -5
0 32 -18 34 -43 5z"/>
<path d="M5083 4493 c9 -2 23 -2 30 0 6 3 -1 5 -18 5 -16 0 -22 -2 -12 -5z"/>
<path d="M5202 4462 c-11 -25 -11 -25 4 -10 9 9 15 21 13 27 -2 6 -10 -2 -17
-17z"/>
<path d="M5160 4471 c0 -5 -3 -18 -6 -28 -5 -16 -4 -16 10 1 18 23 20 36 6 36
-5 0 -10 -4 -10 -9z"/>
<path d="M5240 4460 c0 -5 5 -10 10 -10 6 0 10 5 10 10 0 6 -4 10 -10 10 -5 0
-10 -4 -10 -10z"/>
<path d="M5085 4431 c-1 -18 3 -27 10 -23 5 4 16 7 23 8 8 2 17 6 20 10 4 4 0
5 -8 2 -8 -2 -21 4 -30 14 -14 18 -15 17 -15 -11z"/>
<path d="M5209 4440 c-4 -26 -8 -41 -14 -59 -5 -17 -3 -20 10 -15 10 4 15 14
12 25 -3 10 -1 19 4 21 4 2 4 10 -1 18 -5 8 -10 13 -11 10z"/>
<path d="M5320 4400 c-13 -8 -13 -10 2 -10 9 0 20 5 23 10 8 13 -5 13 -25 0z"/>
<path d="M5274 4376 c-3 -8 -13 -13 -23 -11 -10 2 -18 -3 -18 -10 0 -8 3 -14
6 -13 18 2 24 -3 14 -10 -9 -6 -7 -11 7 -20 12 -7 20 -8 20 -2 0 5 -4 10 -10
10 -5 0 -7 7 -4 15 4 8 10 12 15 9 5 -3 9 6 9 20 0 29 -8 34 -16 12z"/>
<path d="M5323 4352 c-14 -9 -6 -52 8 -52 15 0 22 27 12 44 -5 8 -14 12 -20 8z"/>
<path d="M4640 4320 c0 -5 5 -10 10 -10 6 0 10 5 10 10 0 6 -4 10 -10 10 -5 0
-10 -4 -10 -10z"/>
<path d="M4545 4260 c-3 -5 1 -10 10 -10 9 0 13 5 10 10 -3 6 -8 10 -10 10 -2
0 -7 -4 -10 -10z"/>
<path d="M5367 4247 c-3 -8 1 -14 9 -14 8 0 14 6 14 14 0 7 -4 13 -9 13 -5 0
-11 -6 -14 -13z"/>
<path d="M4590 4240 c10 -6 11 -10 3 -10 -7 0 -13 -5 -13 -11 0 -6 6 -9 14 -6
8 3 17 0 20 -8 4 -10 -2 -11 -26 -4 -18 5 -34 6 -37 4 -2 -3 1 -5 7 -5 7 0 12
-8 12 -17 0 -10 14 -26 31 -35 16 -10 27 -13 24 -8 -3 5 3 14 14 19 14 8 22 7
31 -4 12 -14 40 -10 40 6 0 4 -6 6 -14 3 -8 -3 -21 4 -29 16 -9 14 -20 19 -28
15 -8 -5 -10 -4 -5 3 11 18 -13 52 -37 52 -18 0 -19 -2 -7 -10z m50 -64 c0 -2
-6 -9 -14 -15 -11 -9 -16 -9 -22 0 -4 7 -3 9 4 5 6 -3 13 -2 17 4 6 10 15 14
15 6z"/>
<path d="M4518 4213 c7 -3 16 -2 19 1 4 3 -2 6 -13 5 -11 0 -14 -3 -6 -6z"/>
<path d="M4510 4175 c0 -8 -6 -15 -14 -15 -17 0 -29 -27 -16 -35 6 -4 10 1 10
10 0 9 5 13 10 10 6 -3 10 -15 10 -25 0 -10 4 -22 10 -25 5 -3 7 0 4 8 -3 8 2
17 10 20 23 9 20 30 -4 24 -17 -4 -19 -1 -14 19 3 13 3 24 0 24 -3 0 -6 -7 -6
-15z"/>
<path d="M5440 4181 c0 -6 5 -11 11 -11 7 0 5 -9 -5 -24 -17 -27 -6 -45 14
-21 14 17 10 57 -7 63 -7 2 -13 -1 -13 -7z"/>
<path d="M4535 4170 c-3 -5 -1 -10 4 -10 6 0 11 5 11 10 0 6 -2 10 -4 10 -3 0
-8 -4 -11 -10z"/>
<path d="M4564 4123 c1 -17 6 -27 14 -25 9 1 8 -5 -4 -23 -9 -14 -12 -25 -6
-25 5 0 12 7 16 15 3 8 11 15 18 15 9 0 9 -3 -2 -10 -13 -9 -13 -11 -1 -19 12
-8 12 -12 -2 -26 -10 -9 -17 -12 -17 -6 0 6 -5 11 -11 11 -8 0 -8 -5 1 -15 7
-8 17 -12 22 -9 6 4 14 0 19 -7 5 -8 7 3 4 29 -2 28 1 47 11 57 12 12 12 15 2
15 -10 0 -9 3 2 10 11 7 4 9 -23 5 -27 -3 -37 -1 -34 8 2 7 10 11 16 9 7 -1
10 2 6 8 -13 20 -32 10 -31 -17z"/>
<path d="M5476 4116 c-22 -35 -2 -43 29 -12 30 30 31 36 6 36 -10 0 -26 -11
-35 -24z"/>
<path d="M4540 4091 c0 -6 4 -13 10 -16 6 -3 7 1 4 9 -7 18 -14 21 -14 7z"/>
<path d="M4643 4064 c-17 -17 -16 -24 1 -24 15 0 30 27 18 34 -4 2 -13 -2 -19
-10z"/>
<path d="M5505 4030 c-3 -5 -1 -10 4 -10 6 0 11 5 11 10 0 6 -2 10 -4 10 -3 0
-8 -4 -11 -10z"/>
<path d="M5439 3909 c-16 -16 -18 -23 -8 -35 17 -21 36 -17 43 9 14 51 1 62
-35 26z"/>
<path d="M5500 3896 c0 -8 8 -13 18 -11 9 2 21 4 26 4 15 1 -3 15 -24 18 -12
2 -20 -3 -20 -11z"/>
<path d="M5483 3875 c0 -8 6 -16 14 -19 7 -3 13 -1 13 5 0 5 6 4 14 -3 8 -7
12 -15 11 -18 -2 -3 0 -12 6 -20 7 -12 9 -10 9 7 0 17 4 21 17 16 12 -5 11 -1
-4 14 -12 12 -30 20 -40 19 -10 -2 -23 0 -29 5 -7 5 -11 3 -11 -6z"/>
<path d="M5459 3848 c-4 -12 -5 -47 -1 -43 3 2 14 0 25 -6 14 -8 18 -8 13 0
-4 6 -2 11 5 11 7 0 5 8 -6 20 -16 17 -33 26 -36 18z"/>
<path d="M4401 3814 c0 -11 3 -14 6 -6 3 7 2 16 -1 19 -3 4 -6 -2 -5 -13z"/>
<path d="M5520 3775 c0 -8 2 -15 4 -15 2 0 6 7 10 15 3 8 1 15 -4 15 -6 0 -10
-7 -10 -15z"/>
<path d="M5495 3770 c-3 -5 -1 -10 4 -10 6 0 11 5 11 10 0 6 -2 10 -4 10 -3 0
-8 -4 -11 -10z"/>
<path d="M5640 3719 c0 -5 5 -7 10 -4 6 3 10 8 10 11 0 2 -4 4 -10 4 -5 0 -10
-5 -10 -11z"/>
<path d="M5600 3631 c0 -5 5 -13 10 -16 6 -3 10 -2 10 4 0 5 -4 13 -10 16 -5
3 -10 2 -10 -4z"/>
<path d="M5701 3606 c-9 -11 -9 -16 0 -22 7 -4 9 -3 5 4 -3 5 0 12 6 15 7 2
10 7 7 11 -3 4 -12 0 -18 -8z"/>
<path d="M5739 3593 c7 -14 4 -20 -17 -30 -23 -11 -24 -13 -4 -9 23 4 31 -9
10 -17 -8 -3 -6 -6 5 -6 10 -1 20 6 23 14 4 8 14 15 23 16 11 0 8 3 -7 10 -13
5 -21 13 -18 18 3 5 -1 12 -9 15 -13 4 -14 2 -6 -11z"/>
<path d="M5807 3570 c-3 -11 -1 -20 4 -20 5 0 9 9 9 20 0 11 -2 20 -4 20 -2 0
-6 -9 -9 -20z"/>
<path d="M5561 3564 c0 -11 3 -14 6 -6 3 7 2 16 -1 19 -3 4 -6 -2 -5 -13z"/>
<path d="M5531 3533 c7 -10 15 -20 16 -22 2 -2 3 3 3 11 0 9 -7 19 -16 22 -15
6 -15 4 -3 -11z"/>
<path d="M5754 3529 c-14 -15 -15 -20 -4 -17 9 2 14 -3 12 -13 -3 -21 25 -32
32 -13 3 8 -1 17 -8 20 -8 3 -12 14 -9 25 7 24 1 24 -23 -2z"/>
<path d="M5790 3528 c0 -4 4 -8 9 -8 6 0 12 4 15 8 3 5 -1 9 -9 9 -8 0 -15 -4
-15 -9z"/>
<path d="M5500 3438 c0 -9 7 -22 17 -29 15 -13 15 -12 3 11 -17 34 -20 36 -20
18z"/>
<path d="M5460 3381 c0 -5 5 -13 10 -16 6 -3 10 -2 10 4 0 5 -4 13 -10 16 -5
3 -10 2 -10 -4z"/>
<path d="M6326 3293 c-6 -14 -5 -15 5 -6 7 7 10 15 7 18 -3 3 -9 -2 -12 -12z"/>
<path d="M6335 3271 c-3 -5 -1 -12 5 -16 5 -3 10 1 10 9 0 18 -6 21 -15 7z"/>
<path d="M5713 3185 c0 -8 4 -12 9 -9 5 3 6 10 3 15 -9 13 -12 11 -12 -6z"/>
<path d="M255 6320 c-3 -6 1 -7 9 -4 18 7 21 14 7 14 -6 0 -13 -4 -16 -10z"/>
<path d="M241 6274 c0 -11 3 -14 6 -6 3 7 2 16 -1 19 -3 4 -6 -2 -5 -13z"/>
<path d="M392 6060 c0 -14 2 -19 5 -12 2 6 2 18 0 25 -3 6 -5 1 -5 -13z"/>
<path d="M1127 6125 c3 -8 9 -12 14 -9 12 7 11 11 -5 17 -10 4 -13 1 -9 -8z"/>
<path d="M1110 5780 c0 -13 18 -22 24 -11 3 5 -1 11 -9 15 -8 3 -15 1 -15 -4z"/>
<path d="M9595 3520 c-8 -13 5 -13 25 0 13 8 13 10 -2 10 -9 0 -20 -4 -23 -10z"/>
<path d="M9386 2873 c2 -3 -4 -12 -12 -20 -8 -9 -12 -18 -9 -21 3 -3 13 2 22
11 12 11 14 20 7 26 -6 5 -10 6 -8 4z"/>
<path d="M9350 2799 c-7 -11 -10 -23 -7 -25 2 -2 9 7 15 21 14 30 7 33 -8 4z"/>
<path d="M9311 2547 c-13 -21 -12 -21 5 -5 10 10 16 20 13 22 -3 3 -11 -5 -18
-17z"/>
<path d="M9250 2546 c0 -2 9 -6 20 -9 11 -3 18 -1 14 4 -5 9 -34 13 -34 5z"/>
<path d="M9162 2482 c-11 -25 -11 -25 4 -10 9 9 15 21 13 27 -2 6 -10 -2 -17
-17z"/>
<path d="M9119 2448 c-6 -12 -16 -26 -22 -29 -6 -4 -5 -9 1 -13 6 -3 18 8 26
26 18 36 14 52 -5 16z"/>
<path d="M9209 2427 c6 -8 7 -18 3 -22 -4 -5 -1 -5 6 -1 10 6 10 11 1 22 -6 8
-14 14 -16 14 -3 0 0 -6 6 -13z"/>
<path d="M9025 2319 c-5 -8 -4 -10 3 -5 7 4 12 2 12 -3 0 -6 -10 -11 -22 -12
-13 0 -17 -3 -10 -6 6 -2 12 -9 12 -15 0 -6 -7 -8 -14 -5 -10 4 -13 1 -9 -9 7
-19 8 -18 34 17 14 20 18 34 11 41 -6 6 -12 6 -17 -3z"/>
<path d="M8475 1980 c3 -5 8 -10 11 -10 2 0 4 5 4 10 0 6 -5 10 -11 10 -5 0
-7 -4 -4 -10z"/>
<path d="M8567 1972 c-25 -27 -21 -35 8 -16 25 16 33 34 17 34 -5 0 -16 -8
-25 -18z"/>
<path d="M8504 1836 c-11 -13 -18 -28 -16 -34 2 -7 -1 -12 -7 -12 -6 0 -11 -5
-11 -11 0 -8 4 -8 15 1 8 6 19 9 24 5 7 -3 8 0 5 9 -4 10 -1 16 7 16 8 0 14
11 14 25 0 30 -4 30 -31 1z"/>
<path d="M8365 1780 c-3 -5 -1 -10 4 -10 6 0 11 5 11 10 0 6 -2 10 -4 10 -3 0
-8 -4 -11 -10z"/>
<path d="M8415 1760 c-3 -6 1 -7 9 -4 18 7 21 14 7 14 -6 0 -13 -4 -16 -10z"/>
<path d="M288 6111 c-21 -5 -25 -9 -18 -21 7 -11 10 -11 10 -2 0 18 19 5 31
-22 l10 -21 -5 22 c-2 12 1 24 8 27 7 3 7 5 -2 5 -7 1 -10 6 -7 11 3 6 5 9 3
9 -2 -1 -15 -4 -30 -8z"/>
<path d="M100 5955 c0 -8 5 -15 11 -15 5 0 7 5 3 12 -5 7 -3 8 6 3 10 -6 8
-12 -7 -24 -21 -16 -37 -71 -22 -71 5 0 9 5 9 10 0 6 10 24 22 40 17 24 19 32
8 45 -16 19 -30 19 -30 0z"/>
<path d="M111 5874 c0 -11 3 -14 6 -6 3 7 2 16 -1 19 -3 4 -6 -2 -5 -13z"/>
</g>
</svg>
